solid OpenSCAD_Model
  facet normal -0.809016 0 -0.587786
    outer loop
      vertex -23.5 -7 -5
      vertex -24.5365 -1 -3.57342
      vertex -23.5 -1 -5
    endloop
  endfacet
  facet normal -0.809016 -0 -0.587786
    outer loop
      vertex -24.5365 -1 -3.57342
      vertex -23.5 -7 -5
      vertex -24.5365 -7 -3.57342
    endloop
  endfacet
  facet normal 1 -0 0
    outer loop
      vertex -26.2135 -7 -4.11832
      vertex -26.2135 -1 -5.88168
      vertex -26.2135 -1 -4.11832
    endloop
  endfacet
  facet normal 1 0 0
    outer loop
      vertex -26.2135 -1 -5.88168
      vertex -26.2135 -7 -4.11832
      vertex -26.2135 -7 -5.88168
    endloop
  endfacet
  facet normal 0.309017 0 -0.951056
    outer loop
      vertex -26.2135 -7 -4.11832
      vertex -24.5365 -1 -3.57342
      vertex -24.5365 -7 -3.57342
    endloop
  endfacet
  facet normal 0.309017 0 -0.951056
    outer loop
      vertex -24.5365 -1 -3.57342
      vertex -26.2135 -7 -4.11832
      vertex -26.2135 -1 -4.11832
    endloop
  endfacet
  facet normal -0.809016 0 0.587786
    outer loop
      vertex -24.5365 -7 -6.42658
      vertex -23.5 -1 -5
      vertex -24.5365 -1 -6.42658
    endloop
  endfacet
  facet normal -0.809016 0 0.587786
    outer loop
      vertex -23.5 -1 -5
      vertex -24.5365 -7 -6.42658
      vertex -23.5 -7 -5
    endloop
  endfacet
  facet normal 0.309017 0 0.951056
    outer loop
      vertex -26.2135 -1 -5.88168
      vertex -24.5365 -7 -6.42658
      vertex -24.5365 -1 -6.42658
    endloop
  endfacet
  facet normal 0.309017 0 0.951056
    outer loop
      vertex -24.5365 -7 -6.42658
      vertex -26.2135 -1 -5.88168
      vertex -26.2135 -7 -5.88168
    endloop
  endfacet
  facet normal -0.809016 0 -0.587786
    outer loop
      vertex 27 -7 -5
      vertex 25.9635 -1 -3.57342
      vertex 27 -1 -5
    endloop
  endfacet
  facet normal -0.809016 -0 -0.587786
    outer loop
      vertex 25.9635 -1 -3.57342
      vertex 27 -7 -5
      vertex 25.9635 -7 -3.57342
    endloop
  endfacet
  facet normal 1 -0 0
    outer loop
      vertex 24.2865 -7 -4.11832
      vertex 24.2865 -1 -5.88168
      vertex 24.2865 -1 -4.11832
    endloop
  endfacet
  facet normal 1 0 0
    outer loop
      vertex 24.2865 -1 -5.88168
      vertex 24.2865 -7 -4.11832
      vertex 24.2865 -7 -5.88168
    endloop
  endfacet
  facet normal 0.309017 0 -0.951056
    outer loop
      vertex 24.2865 -7 -4.11832
      vertex 25.9635 -1 -3.57342
      vertex 25.9635 -7 -3.57342
    endloop
  endfacet
  facet normal 0.309017 0 -0.951056
    outer loop
      vertex 25.9635 -1 -3.57342
      vertex 24.2865 -7 -4.11832
      vertex 24.2865 -1 -4.11832
    endloop
  endfacet
  facet normal -0.809016 0 0.587786
    outer loop
      vertex 25.9635 -7 -6.42658
      vertex 27 -1 -5
      vertex 25.9635 -1 -6.42658
    endloop
  endfacet
  facet normal -0.809016 0 0.587786
    outer loop
      vertex 27 -1 -5
      vertex 25.9635 -7 -6.42658
      vertex 27 -7 -5
    endloop
  endfacet
  facet normal 0.309017 0 0.951056
    outer loop
      vertex 24.2865 -1 -5.88168
      vertex 25.9635 -7 -6.42658
      vertex 25.9635 -1 -6.42658
    endloop
  endfacet
  facet normal 0.309017 0 0.951056
    outer loop
      vertex 25.9635 -7 -6.42658
      vertex 24.2865 -1 -5.88168
      vertex 24.2865 -7 -5.88168
    endloop
  endfacet
  facet normal -0.809016 0 -0.587786
    outer loop
      vertex -23.5 -7 5
      vertex -24.5365 -1 6.42658
      vertex -23.5 -1 5
    endloop
  endfacet
  facet normal -0.809016 -0 -0.587786
    outer loop
      vertex -24.5365 -1 6.42658
      vertex -23.5 -7 5
      vertex -24.5365 -7 6.42658
    endloop
  endfacet
  facet normal 1 -0 0
    outer loop
      vertex -26.2135 -7 5.88168
      vertex -26.2135 -1 4.11832
      vertex -26.2135 -1 5.88168
    endloop
  endfacet
  facet normal 1 0 0
    outer loop
      vertex -26.2135 -1 4.11832
      vertex -26.2135 -7 5.88168
      vertex -26.2135 -7 4.11832
    endloop
  endfacet
  facet normal 0.309017 0 -0.951056
    outer loop
      vertex -26.2135 -7 5.88168
      vertex -24.5365 -1 6.42658
      vertex -24.5365 -7 6.42658
    endloop
  endfacet
  facet normal 0.309017 0 -0.951056
    outer loop
      vertex -24.5365 -1 6.42658
      vertex -26.2135 -7 5.88168
      vertex -26.2135 -1 5.88168
    endloop
  endfacet
  facet normal -0.809016 0 0.587786
    outer loop
      vertex -24.5365 -7 3.57342
      vertex -23.5 -1 5
      vertex -24.5365 -1 3.57342
    endloop
  endfacet
  facet normal -0.809016 0 0.587786
    outer loop
      vertex -23.5 -1 5
      vertex -24.5365 -7 3.57342
      vertex -23.5 -7 5
    endloop
  endfacet
  facet normal 0.309017 0 0.951056
    outer loop
      vertex -26.2135 -1 4.11832
      vertex -24.5365 -7 3.57342
      vertex -24.5365 -1 3.57342
    endloop
  endfacet
  facet normal 0.309017 0 0.951056
    outer loop
      vertex -24.5365 -7 3.57342
      vertex -26.2135 -1 4.11832
      vertex -26.2135 -7 4.11832
    endloop
  endfacet
  facet normal -0.809016 0 -0.587786
    outer loop
      vertex 27 -7 5
      vertex 25.9635 -1 6.42658
      vertex 27 -1 5
    endloop
  endfacet
  facet normal -0.809016 -0 -0.587786
    outer loop
      vertex 25.9635 -1 6.42658
      vertex 27 -7 5
      vertex 25.9635 -7 6.42658
    endloop
  endfacet
  facet normal 1 -0 0
    outer loop
      vertex 24.2865 -7 5.88168
      vertex 24.2865 -1 4.11832
      vertex 24.2865 -1 5.88168
    endloop
  endfacet
  facet normal 1 0 0
    outer loop
      vertex 24.2865 -1 4.11832
      vertex 24.2865 -7 5.88168
      vertex 24.2865 -7 4.11832
    endloop
  endfacet
  facet normal 0.309017 0 -0.951056
    outer loop
      vertex 24.2865 -7 5.88168
      vertex 25.9635 -1 6.42658
      vertex 25.9635 -7 6.42658
    endloop
  endfacet
  facet normal 0.309017 0 -0.951056
    outer loop
      vertex 25.9635 -1 6.42658
      vertex 24.2865 -7 5.88168
      vertex 24.2865 -1 5.88168
    endloop
  endfacet
  facet normal -0.809016 0 0.587786
    outer loop
      vertex 25.9635 -7 3.57342
      vertex 27 -1 5
      vertex 25.9635 -1 3.57342
    endloop
  endfacet
  facet normal -0.809016 0 0.587786
    outer loop
      vertex 27 -1 5
      vertex 25.9635 -7 3.57342
      vertex 27 -7 5
    endloop
  endfacet
  facet normal 0.309017 0 0.951056
    outer loop
      vertex 24.2865 -1 4.11832
      vertex 25.9635 -7 3.57342
      vertex 25.9635 -1 3.57342
    endloop
  endfacet
  facet normal 0.309017 0 0.951056
    outer loop
      vertex 25.9635 -7 3.57342
      vertex 24.2865 -1 4.11832
      vertex 24.2865 -7 4.11832
    endloop
  endfacet
  facet normal -1 0 0
    outer loop
      vertex 21 -7 -10.5
      vertex 21 -1 -1.5
      vertex 21 -1 -10.5
    endloop
  endfacet
  facet normal -1 -0 0
    outer loop
      vertex 21 -1 -1.5
      vertex 21 -7 -10.5
      vertex 21 -7 -1.5
    endloop
  endfacet
  facet normal -1 0 0
    outer loop
      vertex 21 -7 1.5
      vertex 21 -1 10.5
      vertex 21 -1 1.5
    endloop
  endfacet
  facet normal -1 -0 0
    outer loop
      vertex 21 -1 10.5
      vertex 21 -7 1.5
      vertex 21 -7 10.5
    endloop
  endfacet
  facet normal 1 -0 0
    outer loop
      vertex -21 -7 -1.5
      vertex -21 -1 -10.5
      vertex -21 -1 -1.5
    endloop
  endfacet
  facet normal 1 0 0
    outer loop
      vertex -21 -1 -10.5
      vertex -21 -7 -1.5
      vertex -21 -7 -10.5
    endloop
  endfacet
  facet normal 1 -0 0
    outer loop
      vertex -21 -7 10.5
      vertex -21 -1 1.5
      vertex -21 -1 10.5
    endloop
  endfacet
  facet normal 1 0 0
    outer loop
      vertex -21 -1 1.5
      vertex -21 -7 10.5
      vertex -21 -7 1.5
    endloop
  endfacet
  facet normal -0 0 1
    outer loop
      vertex -21 -1 -10.5
      vertex 21 -7 -10.5
      vertex 21 -1 -10.5
    endloop
  endfacet
  facet normal 0 0 1
    outer loop
      vertex 21 -7 -10.5
      vertex -21 -1 -10.5
      vertex -21 -7 -10.5
    endloop
  endfacet
  facet normal 0 0 -1
    outer loop
      vertex -21 -7 10.5
      vertex 21 -1 10.5
      vertex 21 -7 10.5
    endloop
  endfacet
  facet normal -0 0 -1
    outer loop
      vertex 21 -1 10.5
      vertex -21 -7 10.5
      vertex -21 -1 10.5
    endloop
  endfacet
  facet normal -1 0 0
    outer loop
      vertex 26 -7 -1.5
      vertex 26 -1 1.5
      vertex 26 -1 -1.5
    endloop
  endfacet
  facet normal -1 -0 0
    outer loop
      vertex 26 -1 1.5
      vertex 26 -7 -1.5
      vertex 26 -7 1.5
    endloop
  endfacet
  facet normal 1 -0 0
    outer loop
      vertex -26 -7 1.5
      vertex -26 -1 -1.5
      vertex -26 -1 1.5
    endloop
  endfacet
  facet normal 1 0 0
    outer loop
      vertex -26 -1 -1.5
      vertex -26 -7 1.5
      vertex -26 -7 -1.5
    endloop
  endfacet
  facet normal -0 0 1
    outer loop
      vertex 21 -1 -1.5
      vertex 26 -7 -1.5
      vertex 26 -1 -1.5
    endloop
  endfacet
  facet normal 0 0 1
    outer loop
      vertex 26 -7 -1.5
      vertex 21 -1 -1.5
      vertex 21 -7 -1.5
    endloop
  endfacet
  facet normal -0 0 1
    outer loop
      vertex -26 -1 -1.5
      vertex -21 -7 -1.5
      vertex -21 -1 -1.5
    endloop
  endfacet
  facet normal 0 0 1
    outer loop
      vertex -21 -7 -1.5
      vertex -26 -1 -1.5
      vertex -26 -7 -1.5
    endloop
  endfacet
  facet normal 0 0 -1
    outer loop
      vertex -26 -7 1.5
      vertex -21 -1 1.5
      vertex -21 -7 1.5
    endloop
  endfacet
  facet normal -0 0 -1
    outer loop
      vertex -21 -1 1.5
      vertex -26 -7 1.5
      vertex -26 -1 1.5
    endloop
  endfacet
  facet normal 0 0 -1
    outer loop
      vertex 21 -7 1.5
      vertex 26 -1 1.5
      vertex 26 -7 1.5
    endloop
  endfacet
  facet normal -0 0 -1
    outer loop
      vertex 26 -1 1.5
      vertex 21 -7 1.5
      vertex 21 -1 1.5
    endloop
  endfacet
  facet normal 0 0 -1
    outer loop
      vertex -30 -7 -30
      vertex 70 -1 -30
      vertex 70 -7 -30
    endloop
  endfacet
  facet normal -0 0 -1
    outer loop
      vertex 70 -1 -30
      vertex -30 -7 -30
      vertex -30 -1 -30
    endloop
  endfacet
  facet normal 1 -0 0
    outer loop
      vertex 70 -7 30
      vertex 70 -1 -30
      vertex 70 -1 30
    endloop
  endfacet
  facet normal 1 0 0
    outer loop
      vertex 70 -1 -30
      vertex 70 -7 30
      vertex 70 -7 -30
    endloop
  endfacet
  facet normal -1 0 0
    outer loop
      vertex -30 -7 -30
      vertex -30 -1 30
      vertex -30 -1 -30
    endloop
  endfacet
  facet normal -1 -0 0
    outer loop
      vertex -30 -1 30
      vertex -30 -7 -30
      vertex -30 -7 30
    endloop
  endfacet
  facet normal 0 -1 0
    outer loop
      vertex 24.2865 -7 -4.11832
      vertex 26 -7 -1.5
      vertex 21 -7 -1.5
    endloop
  endfacet
  facet normal 0 -1 0
    outer loop
      vertex 27 -7 -5
      vertex 26 -7 -1.5
      vertex 25.9635 -7 -3.57342
    endloop
  endfacet
  facet normal 0 -1 0
    outer loop
      vertex 26 -7 -1.5
      vertex 24.2865 -7 -4.11832
      vertex 25.9635 -7 -3.57342
    endloop
  endfacet
  facet normal 0 -1 0
    outer loop
      vertex 21 -7 -1.5
      vertex 24.2865 -7 -5.88168
      vertex 24.2865 -7 -4.11832
    endloop
  endfacet
  facet normal 0 -1 0
    outer loop
      vertex 21 -7 -10.5
      vertex 24.2865 -7 -5.88168
      vertex 21 -7 -1.5
    endloop
  endfacet
  facet normal 0 -1 0
    outer loop
      vertex 21 -7 -10.5
      vertex 25.9635 -7 -6.42658
      vertex 24.2865 -7 -5.88168
    endloop
  endfacet
  facet normal 0 -1 0
    outer loop
      vertex 21 -7 -10.5
      vertex 37.8647 -7 -8.81678
      vertex 25.9635 -7 -6.42658
    endloop
  endfacet
  facet normal 0 -1 -0
    outer loop
      vertex 37.8647 -7 -8.81678
      vertex 21 -7 -10.5
      vertex 39.963 -7 -11.1472
    endloop
  endfacet
  facet normal 0 -1 0
    outer loop
      vertex 21 -7 10.5
      vertex 70 -7 30
      vertex -30 -7 30
    endloop
  endfacet
  facet normal 0 -1 0
    outer loop
      vertex 70 -7 30
      vertex 45.3647 -7 14.2658
      vertex 48.4321 -7 14.9178
    endloop
  endfacet
  facet normal 0 -1 0
    outer loop
      vertex 70 -7 30
      vertex 21 -7 10.5
      vertex 45.3647 -7 14.2658
    endloop
  endfacet
  facet normal 0 -1 0
    outer loop
      vertex 45.3647 -7 14.2658
      vertex 21 -7 10.5
      vertex 42.5 -7 12.9904
    endloop
  endfacet
  facet normal 0 -1 0
    outer loop
      vertex 21 -7 10.5
      vertex -30 -7 30
      vertex -21 -7 10.5
    endloop
  endfacet
  facet normal 0 -1 0
    outer loop
      vertex -26.2135 -7 5.88168
      vertex -21 -7 10.5
      vertex -30 -7 30
    endloop
  endfacet
  facet normal 0 -1 0
    outer loop
      vertex -21 -7 10.5
      vertex -26.2135 -7 5.88168
      vertex -24.5365 -7 6.42658
    endloop
  endfacet
  facet normal 0 -1 0
    outer loop
      vertex -30 -7 30
      vertex -26.2135 -7 4.11832
      vertex -26.2135 -7 5.88168
    endloop
  endfacet
  facet normal 0 -1 0
    outer loop
      vertex -26.2135 -7 4.11832
      vertex -26 -7 1.5
      vertex -24.5365 -7 3.57342
    endloop
  endfacet
  facet normal 0 -1 0
    outer loop
      vertex -26.2135 -7 -4.11832
      vertex -26.2135 -7 4.11832
      vertex -30 -7 30
    endloop
  endfacet
  facet normal 0 -1 0
    outer loop
      vertex -26.2135 -7 4.11832
      vertex -26.2135 -7 -4.11832
      vertex -26 -7 1.5
    endloop
  endfacet
  facet normal 0 -1 0
    outer loop
      vertex -26 -7 -1.5
      vertex -24.5365 -7 -3.57342
      vertex -21 -7 -1.5
    endloop
  endfacet
  facet normal 0 -1 -0
    outer loop
      vertex -26 -7 -1.5
      vertex -26.2135 -7 -4.11832
      vertex -24.5365 -7 -3.57342
    endloop
  endfacet
  facet normal 0 -1 -0
    outer loop
      vertex -26 -7 1.5
      vertex -26.2135 -7 -4.11832
      vertex -26 -7 -1.5
    endloop
  endfacet
  facet normal 0 -1 0
    outer loop
      vertex -30 -7 -30
      vertex -26.2135 -7 -4.11832
      vertex -30 -7 30
    endloop
  endfacet
  facet normal 0 -1 0
    outer loop
      vertex -26.2135 -7 -5.88168
      vertex -21 -7 -10.5
      vertex -24.5365 -7 -6.42658
    endloop
  endfacet
  facet normal 0 -1 0
    outer loop
      vertex -30 -7 -30
      vertex 21 -7 -10.5
      vertex -21 -7 -10.5
    endloop
  endfacet
  facet normal 0 -1 0
    outer loop
      vertex 70 -7 -30
      vertex 21 -7 -10.5
      vertex -30 -7 -30
    endloop
  endfacet
  facet normal 0 -1 0
    outer loop
      vertex 21 -7 -10.5
      vertex 42.5 -7 -12.9904
      vertex 39.963 -7 -11.1472
    endloop
  endfacet
  facet normal 0 -1 0
    outer loop
      vertex 21 -7 -10.5
      vertex 45.3647 -7 -14.2658
      vertex 42.5 -7 -12.9904
    endloop
  endfacet
  facet normal 0 -1 0
    outer loop
      vertex 45.3647 -7 -14.2658
      vertex 70 -7 -30
      vertex 48.4321 -7 -14.9178
    endloop
  endfacet
  facet normal 0 -1 0
    outer loop
      vertex 21 -7 -10.5
      vertex 70 -7 -30
      vertex 45.3647 -7 -14.2658
    endloop
  endfacet
  facet normal 0 -1 -0
    outer loop
      vertex -26.2135 -7 -5.88168
      vertex -30 -7 -30
      vertex -21 -7 -10.5
    endloop
  endfacet
  facet normal 0 -1 -0
    outer loop
      vertex -26.2135 -7 -4.11832
      vertex -30 -7 -30
      vertex -26.2135 -7 -5.88168
    endloop
  endfacet
  facet normal 0 -1 0
    outer loop
      vertex 51.5679 -7 14.9178
      vertex 70 -7 30
      vertex 48.4321 -7 14.9178
    endloop
  endfacet
  facet normal 0 -1 0
    outer loop
      vertex 54.6353 -7 14.2658
      vertex 70 -7 30
      vertex 51.5679 -7 14.9178
    endloop
  endfacet
  facet normal 0 -1 0
    outer loop
      vertex 57.5 -7 12.9904
      vertex 70 -7 30
      vertex 54.6353 -7 14.2658
    endloop
  endfacet
  facet normal 0 -1 0
    outer loop
      vertex 60.037 -7 11.1472
      vertex 70 -7 30
      vertex 57.5 -7 12.9904
    endloop
  endfacet
  facet normal 0 -1 0
    outer loop
      vertex 62.1353 -7 8.81678
      vertex 70 -7 30
      vertex 60.037 -7 11.1472
    endloop
  endfacet
  facet normal 0 -1 0
    outer loop
      vertex 63.7032 -7 6.10105
      vertex 70 -7 30
      vertex 62.1353 -7 8.81678
    endloop
  endfacet
  facet normal 0 -1 0
    outer loop
      vertex 64.6722 -7 3.11868
      vertex 70 -7 30
      vertex 63.7032 -7 6.10105
    endloop
  endfacet
  facet normal 0 -1 0
    outer loop
      vertex 65 -7 0
      vertex 70 -7 30
      vertex 64.6722 -7 3.11868
    endloop
  endfacet
  facet normal 0 -1 0
    outer loop
      vertex 70 -7 -30
      vertex 65 -7 0
      vertex 64.6722 -7 -3.11868
    endloop
  endfacet
  facet normal 0 -1 0
    outer loop
      vertex 65 -7 0
      vertex 70 -7 -30
      vertex 70 -7 30
    endloop
  endfacet
  facet normal 0 -1 0
    outer loop
      vertex 63.7032 -7 -6.10105
      vertex 70 -7 -30
      vertex 64.6722 -7 -3.11868
    endloop
  endfacet
  facet normal 0 -1 0
    outer loop
      vertex 62.1353 -7 -8.81678
      vertex 70 -7 -30
      vertex 63.7032 -7 -6.10105
    endloop
  endfacet
  facet normal 0 -1 0
    outer loop
      vertex 60.037 -7 -11.1472
      vertex 70 -7 -30
      vertex 62.1353 -7 -8.81678
    endloop
  endfacet
  facet normal 0 -1 0
    outer loop
      vertex 57.5 -7 -12.9904
      vertex 70 -7 -30
      vertex 60.037 -7 -11.1472
    endloop
  endfacet
  facet normal 0 -1 0
    outer loop
      vertex 54.6353 -7 -14.2658
      vertex 70 -7 -30
      vertex 57.5 -7 -12.9904
    endloop
  endfacet
  facet normal 0 -1 0
    outer loop
      vertex 51.5679 -7 -14.9178
      vertex 70 -7 -30
      vertex 54.6353 -7 -14.2658
    endloop
  endfacet
  facet normal 0 -1 0
    outer loop
      vertex 48.4321 -7 -14.9178
      vertex 70 -7 -30
      vertex 51.5679 -7 -14.9178
    endloop
  endfacet
  facet normal 0 -1 0
    outer loop
      vertex 42.5 -7 12.9904
      vertex 21 -7 10.5
      vertex 39.963 -7 11.1472
    endloop
  endfacet
  facet normal 0 -1 0
    outer loop
      vertex 21 -7 10.5
      vertex 37.8647 -7 8.81678
      vertex 39.963 -7 11.1472
    endloop
  endfacet
  facet normal 0 -1 0
    outer loop
      vertex 21 -7 10.5
      vertex 25.9635 -7 6.42658
      vertex 37.8647 -7 8.81678
    endloop
  endfacet
  facet normal 0 -1 0
    outer loop
      vertex 21 -7 10.5
      vertex 24.2865 -7 5.88168
      vertex 25.9635 -7 6.42658
    endloop
  endfacet
  facet normal 0 -1 0
    outer loop
      vertex 21 -7 1.5
      vertex 24.2865 -7 5.88168
      vertex 21 -7 10.5
    endloop
  endfacet
  facet normal 0 -1 -0
    outer loop
      vertex 24.2865 -7 5.88168
      vertex 21 -7 1.5
      vertex 24.2865 -7 4.11832
    endloop
  endfacet
  facet normal 0 -1 0
    outer loop
      vertex 26 -7 1.5
      vertex 24.2865 -7 4.11832
      vertex 21 -7 1.5
    endloop
  endfacet
  facet normal 0 -1 0
    outer loop
      vertex 24.2865 -7 4.11832
      vertex 26 -7 1.5
      vertex 25.9635 -7 3.57342
    endloop
  endfacet
  facet normal 0 -1 0
    outer loop
      vertex 25.9635 -7 3.57342
      vertex 26 -7 1.5
      vertex 35.3278 -7 3.11868
    endloop
  endfacet
  facet normal 0 -1 0
    outer loop
      vertex 26 -7 1.5
      vertex 35 -7 0
      vertex 35.3278 -7 3.11868
    endloop
  endfacet
  facet normal 0 -1 0
    outer loop
      vertex 26 -7 -1.5
      vertex 35 -7 0
      vertex 26 -7 1.5
    endloop
  endfacet
  facet normal 0 -1 -0
    outer loop
      vertex 35 -7 0
      vertex 26 -7 -1.5
      vertex 35.3278 -7 -3.11868
    endloop
  endfacet
  facet normal 0 -1 0
    outer loop
      vertex -23.5 -7 5
      vertex -21 -7 10.5
      vertex -24.5365 -7 6.42658
    endloop
  endfacet
  facet normal 0 -1 0
    outer loop
      vertex -21 -7 1.5
      vertex -24.5365 -7 3.57342
      vertex -26 -7 1.5
    endloop
  endfacet
  facet normal 0 -1 0
    outer loop
      vertex -23.5 -7 5
      vertex -21 -7 1.5
      vertex -21 -7 10.5
    endloop
  endfacet
  facet normal 0 -1 0
    outer loop
      vertex -24.5365 -7 3.57342
      vertex -21 -7 1.5
      vertex -23.5 -7 5
    endloop
  endfacet
  facet normal 0 -1 0
    outer loop
      vertex 25.9635 -7 6.42658
      vertex 36.2968 -7 6.10105
      vertex 37.8647 -7 8.81678
    endloop
  endfacet
  facet normal 0 -1 0
    outer loop
      vertex 27 -7 5
      vertex 36.2968 -7 6.10105
      vertex 25.9635 -7 6.42658
    endloop
  endfacet
  facet normal 0 -1 0
    outer loop
      vertex 35.3278 -7 3.11868
      vertex 27 -7 5
      vertex 25.9635 -7 3.57342
    endloop
  endfacet
  facet normal 0 -1 0
    outer loop
      vertex 27 -7 5
      vertex 35.3278 -7 3.11868
      vertex 36.2968 -7 6.10105
    endloop
  endfacet
  facet normal 0 -1 0
    outer loop
      vertex -23.5 -7 -5
      vertex -21 -7 -1.5
      vertex -24.5365 -7 -3.57342
    endloop
  endfacet
  facet normal 0 -1 0
    outer loop
      vertex -23.5 -7 -5
      vertex -21 -7 -10.5
      vertex -21 -7 -1.5
    endloop
  endfacet
  facet normal 0 -1 0
    outer loop
      vertex -21 -7 -10.5
      vertex -23.5 -7 -5
      vertex -24.5365 -7 -6.42658
    endloop
  endfacet
  facet normal 0 -1 0
    outer loop
      vertex 26 -7 -1.5
      vertex 27 -7 -5
      vertex 35.3278 -7 -3.11868
    endloop
  endfacet
  facet normal 0 -1 0
    outer loop
      vertex 27 -7 -5
      vertex 36.2968 -7 -6.10105
      vertex 35.3278 -7 -3.11868
    endloop
  endfacet
  facet normal 0 -1 0
    outer loop
      vertex 25.9635 -7 -6.42658
      vertex 36.2968 -7 -6.10105
      vertex 27 -7 -5
    endloop
  endfacet
  facet normal 0 -1 -0
    outer loop
      vertex 36.2968 -7 -6.10105
      vertex 25.9635 -7 -6.42658
      vertex 37.8647 -7 -8.81678
    endloop
  endfacet
  facet normal 0 1 0
    outer loop
      vertex -21 -1 -1.5
      vertex -24.5365 -1 -3.57342
      vertex -26 -1 -1.5
    endloop
  endfacet
  facet normal 0 1 0
    outer loop
      vertex -21 -1 -1.5
      vertex -23.5 -1 -5
      vertex -24.5365 -1 -3.57342
    endloop
  endfacet
  facet normal 0 1 0
    outer loop
      vertex -23.5 -1 -5
      vertex -21 -1 -10.5
      vertex -24.5365 -1 -6.42658
    endloop
  endfacet
  facet normal 0 1 -0
    outer loop
      vertex -21 -1 -10.5
      vertex -23.5 -1 -5
      vertex -21 -1 -1.5
    endloop
  endfacet
  facet normal 0 1 -0
    outer loop
      vertex 35 -1 0
      vertex 26 -1 1.5
      vertex 35.3278 -1 3.11868
    endloop
  endfacet
  facet normal 0 1 0
    outer loop
      vertex 35 -1 0
      vertex 26 -1 -1.5
      vertex 26 -1 1.5
    endloop
  endfacet
  facet normal 0 1 0
    outer loop
      vertex 35.3278 -1 -3.11868
      vertex 26 -1 -1.5
      vertex 35 -1 0
    endloop
  endfacet
  facet normal 0 1 -0
    outer loop
      vertex 27 -1 -5
      vertex 26 -1 -1.5
      vertex 35.3278 -1 -3.11868
    endloop
  endfacet
  facet normal 0 1 0
    outer loop
      vertex 24.2865 -1 -4.11832
      vertex 26 -1 -1.5
      vertex 25.9635 -1 -3.57342
    endloop
  endfacet
  facet normal 0 1 0
    outer loop
      vertex 26 -1 -1.5
      vertex 24.2865 -1 -4.11832
      vertex 21 -1 -1.5
    endloop
  endfacet
  facet normal 0 1 -0
    outer loop
      vertex 24.2865 -1 -5.88168
      vertex 21 -1 -1.5
      vertex 24.2865 -1 -4.11832
    endloop
  endfacet
  facet normal 0 1 0
    outer loop
      vertex 24.2865 -1 -5.88168
      vertex 21 -1 -10.5
      vertex 21 -1 -1.5
    endloop
  endfacet
  facet normal 0 1 0
    outer loop
      vertex 25.9635 -1 -6.42658
      vertex 21 -1 -10.5
      vertex 24.2865 -1 -5.88168
    endloop
  endfacet
  facet normal 0 1 0
    outer loop
      vertex 37.8647 -1 -8.81678
      vertex 21 -1 -10.5
      vertex 25.9635 -1 -6.42658
    endloop
  endfacet
  facet normal 0 1 0
    outer loop
      vertex 42.5 -1 -12.9904
      vertex 21 -1 -10.5
      vertex 39.963 -1 -11.1472
    endloop
  endfacet
  facet normal 0 1 0
    outer loop
      vertex 39.963 -1 -11.1472
      vertex 21 -1 -10.5
      vertex 37.8647 -1 -8.81678
    endloop
  endfacet
  facet normal 0 1 0
    outer loop
      vertex 26 -1 -1.5
      vertex 27 -1 -5
      vertex 25.9635 -1 -3.57342
    endloop
  endfacet
  facet normal 0 1 0
    outer loop
      vertex 36.2968 -1 -6.10105
      vertex 27 -1 -5
      vertex 35.3278 -1 -3.11868
    endloop
  endfacet
  facet normal 0 1 0
    outer loop
      vertex 36.2968 -1 -6.10105
      vertex 25.9635 -1 -6.42658
      vertex 27 -1 -5
    endloop
  endfacet
  facet normal -0 1 0
    outer loop
      vertex 25.9635 -1 -6.42658
      vertex 36.2968 -1 -6.10105
      vertex 37.8647 -1 -8.81678
    endloop
  endfacet
  facet normal 0 1 0
    outer loop
      vertex -21 -1 10.5
      vertex -23.5 -1 5
      vertex -24.5365 -1 6.42658
    endloop
  endfacet
  facet normal 0 1 0
    outer loop
      vertex -23.5 -1 5
      vertex -21 -1 1.5
      vertex -24.5365 -1 3.57342
    endloop
  endfacet
  facet normal 0 1 -0
    outer loop
      vertex -21 -1 1.5
      vertex -23.5 -1 5
      vertex -21 -1 10.5
    endloop
  endfacet
  facet normal 0 1 -0
    outer loop
      vertex 36.2968 -1 6.10105
      vertex 25.9635 -1 6.42658
      vertex 37.8647 -1 8.81678
    endloop
  endfacet
  facet normal 0 1 0
    outer loop
      vertex 36.2968 -1 6.10105
      vertex 27 -1 5
      vertex 25.9635 -1 6.42658
    endloop
  endfacet
  facet normal 0 1 -0
    outer loop
      vertex 35.3278 -1 3.11868
      vertex 27 -1 5
      vertex 36.2968 -1 6.10105
    endloop
  endfacet
  facet normal 0 1 0
    outer loop
      vertex 26 -1 1.5
      vertex 27 -1 5
      vertex 35.3278 -1 3.11868
    endloop
  endfacet
  facet normal 0 1 -0
    outer loop
      vertex 37.8647 -1 8.81678
      vertex 21 -1 10.5
      vertex 39.963 -1 11.1472
    endloop
  endfacet
  facet normal 0 1 -0
    outer loop
      vertex 25.9635 -1 6.42658
      vertex 21 -1 10.5
      vertex 37.8647 -1 8.81678
    endloop
  endfacet
  facet normal 0 1 -0
    outer loop
      vertex 24.2865 -1 5.88168
      vertex 21 -1 10.5
      vertex 25.9635 -1 6.42658
    endloop
  endfacet
  facet normal 0 1 0
    outer loop
      vertex 21 -1 1.5
      vertex 24.2865 -1 5.88168
      vertex 24.2865 -1 4.11832
    endloop
  endfacet
  facet normal 0 1 0
    outer loop
      vertex 27 -1 5
      vertex 26 -1 1.5
      vertex 25.9635 -1 3.57342
    endloop
  endfacet
  facet normal 0 1 0
    outer loop
      vertex 26 -1 1.5
      vertex 24.2865 -1 4.11832
      vertex 25.9635 -1 3.57342
    endloop
  endfacet
  facet normal 0 1 0
    outer loop
      vertex 24.2865 -1 5.88168
      vertex 21 -1 1.5
      vertex 21 -1 10.5
    endloop
  endfacet
  facet normal 0 1 0
    outer loop
      vertex 21 -1 1.5
      vertex 24.2865 -1 4.11832
      vertex 26 -1 1.5
    endloop
  endfacet
  facet normal 0 1 0
    outer loop
      vertex 48.4321 -1 14.9178
      vertex 70 -1 30
      vertex 51.5679 -1 14.9178
    endloop
  endfacet
  facet normal 0 1 0
    outer loop
      vertex 70 -1 30
      vertex 54.6353 -1 14.2658
      vertex 51.5679 -1 14.9178
    endloop
  endfacet
  facet normal 0 1 0
    outer loop
      vertex 70 -1 30
      vertex 57.5 -1 12.9904
      vertex 54.6353 -1 14.2658
    endloop
  endfacet
  facet normal 0 1 0
    outer loop
      vertex 70 -1 30
      vertex 60.037 -1 11.1472
      vertex 57.5 -1 12.9904
    endloop
  endfacet
  facet normal 0 1 0
    outer loop
      vertex 70 -1 30
      vertex 62.1353 -1 8.81678
      vertex 60.037 -1 11.1472
    endloop
  endfacet
  facet normal 0 1 0
    outer loop
      vertex 70 -1 30
      vertex 63.7032 -1 6.10105
      vertex 62.1353 -1 8.81678
    endloop
  endfacet
  facet normal 0 1 0
    outer loop
      vertex 70 -1 30
      vertex 64.6722 -1 3.11868
      vertex 63.7032 -1 6.10105
    endloop
  endfacet
  facet normal 0 1 0
    outer loop
      vertex 70 -1 30
      vertex 65 -1 0
      vertex 64.6722 -1 3.11868
    endloop
  endfacet
  facet normal 0 1 -0
    outer loop
      vertex 70 -1 -30
      vertex 65 -1 0
      vertex 70 -1 30
    endloop
  endfacet
  facet normal 0 1 0
    outer loop
      vertex 51.5679 -1 -14.9178
      vertex 70 -1 -30
      vertex 48.4321 -1 -14.9178
    endloop
  endfacet
  facet normal 0 1 0
    outer loop
      vertex 54.6353 -1 -14.2658
      vertex 70 -1 -30
      vertex 51.5679 -1 -14.9178
    endloop
  endfacet
  facet normal 0 1 0
    outer loop
      vertex 57.5 -1 -12.9904
      vertex 70 -1 -30
      vertex 54.6353 -1 -14.2658
    endloop
  endfacet
  facet normal 0 1 0
    outer loop
      vertex 60.037 -1 -11.1472
      vertex 70 -1 -30
      vertex 57.5 -1 -12.9904
    endloop
  endfacet
  facet normal 0 1 0
    outer loop
      vertex 62.1353 -1 -8.81678
      vertex 70 -1 -30
      vertex 60.037 -1 -11.1472
    endloop
  endfacet
  facet normal 0 1 0
    outer loop
      vertex 63.7032 -1 -6.10105
      vertex 70 -1 -30
      vertex 62.1353 -1 -8.81678
    endloop
  endfacet
  facet normal 0 1 0
    outer loop
      vertex 64.6722 -1 -3.11868
      vertex 70 -1 -30
      vertex 63.7032 -1 -6.10105
    endloop
  endfacet
  facet normal 0 1 0
    outer loop
      vertex 65 -1 0
      vertex 70 -1 -30
      vertex 64.6722 -1 -3.11868
    endloop
  endfacet
  facet normal 0 1 0
    outer loop
      vertex 45.3647 -1 14.2658
      vertex 70 -1 30
      vertex 48.4321 -1 14.9178
    endloop
  endfacet
  facet normal 0 1 0
    outer loop
      vertex 21 -1 10.5
      vertex 70 -1 30
      vertex 45.3647 -1 14.2658
    endloop
  endfacet
  facet normal 0 1 0
    outer loop
      vertex 21 -1 10.5
      vertex 45.3647 -1 14.2658
      vertex 42.5 -1 12.9904
    endloop
  endfacet
  facet normal 0 1 0
    outer loop
      vertex 21 -1 10.5
      vertex 42.5 -1 12.9904
      vertex 39.963 -1 11.1472
    endloop
  endfacet
  facet normal 0 1 0
    outer loop
      vertex 70 -1 30
      vertex 21 -1 10.5
      vertex -30 -1 30
    endloop
  endfacet
  facet normal 0 1 -0
    outer loop
      vertex -21 -1 10.5
      vertex -30 -1 30
      vertex 21 -1 10.5
    endloop
  endfacet
  facet normal 0 1 0
    outer loop
      vertex -26.2135 -1 5.88168
      vertex -21 -1 10.5
      vertex -24.5365 -1 6.42658
    endloop
  endfacet
  facet normal 0 1 0
    outer loop
      vertex -21 -1 10.5
      vertex -26.2135 -1 5.88168
      vertex -30 -1 30
    endloop
  endfacet
  facet normal 0 1 -0
    outer loop
      vertex -26.2135 -1 4.11832
      vertex -30 -1 30
      vertex -26.2135 -1 5.88168
    endloop
  endfacet
  facet normal 0 1 0
    outer loop
      vertex -26 -1 1.5
      vertex -24.5365 -1 3.57342
      vertex -21 -1 1.5
    endloop
  endfacet
  facet normal 0 1 0
    outer loop
      vertex -24.5365 -1 3.57342
      vertex -26 -1 1.5
      vertex -26.2135 -1 4.11832
    endloop
  endfacet
  facet normal 0 1 0
    outer loop
      vertex -26.2135 -1 -4.11832
      vertex -26.2135 -1 4.11832
      vertex -26 -1 1.5
    endloop
  endfacet
  facet normal 0 1 0
    outer loop
      vertex -26.2135 -1 -4.11832
      vertex -26 -1 1.5
      vertex -26 -1 -1.5
    endloop
  endfacet
  facet normal 0 1 0
    outer loop
      vertex -26.2135 -1 -4.11832
      vertex -26 -1 -1.5
      vertex -24.5365 -1 -3.57342
    endloop
  endfacet
  facet normal 0 1 0
    outer loop
      vertex -26.2135 -1 4.11832
      vertex -26.2135 -1 -4.11832
      vertex -30 -1 30
    endloop
  endfacet
  facet normal 0 1 0
    outer loop
      vertex -30 -1 -30
      vertex -26.2135 -1 -4.11832
      vertex -26.2135 -1 -5.88168
    endloop
  endfacet
  facet normal 0 1 0
    outer loop
      vertex -21 -1 -10.5
      vertex -26.2135 -1 -5.88168
      vertex -24.5365 -1 -6.42658
    endloop
  endfacet
  facet normal 0 1 0
    outer loop
      vertex 45.3647 -1 -14.2658
      vertex 21 -1 -10.5
      vertex 42.5 -1 -12.9904
    endloop
  endfacet
  facet normal 0 1 0
    outer loop
      vertex 70 -1 -30
      vertex 21 -1 -10.5
      vertex 45.3647 -1 -14.2658
    endloop
  endfacet
  facet normal 0 1 0
    outer loop
      vertex 70 -1 -30
      vertex 45.3647 -1 -14.2658
      vertex 48.4321 -1 -14.9178
    endloop
  endfacet
  facet normal 0 1 0
    outer loop
      vertex 21 -1 -10.5
      vertex 70 -1 -30
      vertex -30 -1 -30
    endloop
  endfacet
  facet normal 0 1 0
    outer loop
      vertex -26.2135 -1 -4.11832
      vertex -30 -1 -30
      vertex -30 -1 30
    endloop
  endfacet
  facet normal 0 1 0
    outer loop
      vertex -21 -1 -10.5
      vertex -30 -1 -30
      vertex -26.2135 -1 -5.88168
    endloop
  endfacet
  facet normal 0 1 0
    outer loop
      vertex 21 -1 -10.5
      vertex -30 -1 -30
      vertex -21 -1 -10.5
    endloop
  endfacet
  facet normal -0 0 1
    outer loop
      vertex -30 -1 30
      vertex 70 -7 30
      vertex 70 -1 30
    endloop
  endfacet
  facet normal 0 0 1
    outer loop
      vertex 70 -7 30
      vertex -30 -1 30
      vertex -30 -7 30
    endloop
  endfacet
  facet normal 0.951057 -0 0.309016
    outer loop
      vertex 63.7032 -1 6.10105
      vertex 64.6722 0 3.11868
      vertex 63.7032 0 6.10105
    endloop
  endfacet
  facet normal 0.951057 0 0.309016
    outer loop
      vertex 64.6722 0 3.11868
      vertex 63.7032 -1 6.10105
      vertex 64.6722 -1 3.11868
    endloop
  endfacet
  facet normal 0.951057 -0 0.309016
    outer loop
      vertex 63.7032 -30 6.10105
      vertex 64.6722 -7 3.11868
      vertex 63.7032 -7 6.10105
    endloop
  endfacet
  facet normal 0.951057 0 0.309016
    outer loop
      vertex 64.6722 -7 3.11868
      vertex 63.7032 -30 6.10105
      vertex 64.6722 -30 3.11868
    endloop
  endfacet
  facet normal 0.994522 -0 0.10453
    outer loop
      vertex 64.6722 -1 3.11868
      vertex 65 0 0
      vertex 64.6722 0 3.11868
    endloop
  endfacet
  facet normal 0.994522 0 0.10453
    outer loop
      vertex 65 0 0
      vertex 64.6722 -1 3.11868
      vertex 65 -1 0
    endloop
  endfacet
  facet normal 0.994522 -0 0.10453
    outer loop
      vertex 64.6722 -30 3.11868
      vertex 65 -7 0
      vertex 64.6722 -7 3.11868
    endloop
  endfacet
  facet normal 0.994522 0 0.10453
    outer loop
      vertex 65 -7 0
      vertex 64.6722 -30 3.11868
      vertex 65 -30 0
    endloop
  endfacet
  facet normal -0.207912 0 0.978148
    outer loop
      vertex 45.3647 0 14.2658
      vertex 48.4321 -1 14.9178
      vertex 48.4321 0 14.9178
    endloop
  endfacet
  facet normal -0.207912 0 0.978148
    outer loop
      vertex 48.4321 -1 14.9178
      vertex 45.3647 0 14.2658
      vertex 45.3647 -1 14.2658
    endloop
  endfacet
  facet normal -0.207912 0 0.978148
    outer loop
      vertex 45.3647 -7 14.2658
      vertex 48.4321 -30 14.9178
      vertex 48.4321 -7 14.9178
    endloop
  endfacet
  facet normal -0.207912 0 0.978148
    outer loop
      vertex 48.4321 -30 14.9178
      vertex 45.3647 -7 14.2658
      vertex 45.3647 -30 14.2658
    endloop
  endfacet
  facet normal -0.951057 0 -0.309017
    outer loop
      vertex 36.2968 -1 -6.10105
      vertex 35.3278 0 -3.11868
      vertex 36.2968 0 -6.10105
    endloop
  endfacet
  facet normal -0.951057 -0 -0.309017
    outer loop
      vertex 35.3278 0 -3.11868
      vertex 36.2968 -1 -6.10105
      vertex 35.3278 -1 -3.11868
    endloop
  endfacet
  facet normal -0.951057 0 -0.309017
    outer loop
      vertex 36.2968 -30 -6.10105
      vertex 35.3278 -7 -3.11868
      vertex 36.2968 -7 -6.10105
    endloop
  endfacet
  facet normal -0.951057 -0 -0.309017
    outer loop
      vertex 35.3278 -7 -3.11868
      vertex 36.2968 -30 -6.10105
      vertex 35.3278 -30 -3.11868
    endloop
  endfacet
  facet normal 0 -1 -0
    outer loop
      vertex 45.3647 -30 14.2658
      vertex 36.2968 -30 6.10105
      vertex 48.4321 -30 14.9178
    endloop
  endfacet
  facet normal 0.406737 0 0.913545
    outer loop
      vertex 54.6353 0 14.2658
      vertex 57.5 -1 12.9904
      vertex 57.5 0 12.9904
    endloop
  endfacet
  facet normal 0.406737 0 0.913545
    outer loop
      vertex 57.5 -1 12.9904
      vertex 54.6353 0 14.2658
      vertex 54.6353 -1 14.2658
    endloop
  endfacet
  facet normal 0.406737 0 0.913545
    outer loop
      vertex 54.6353 -7 14.2658
      vertex 57.5 -30 12.9904
      vertex 57.5 -7 12.9904
    endloop
  endfacet
  facet normal 0.406737 0 0.913545
    outer loop
      vertex 57.5 -30 12.9904
      vertex 54.6353 -7 14.2658
      vertex 54.6353 -30 14.2658
    endloop
  endfacet
  facet normal 0.207912 0 -0.978148
    outer loop
      vertex 51.5679 -1 -14.9178
      vertex 54.6353 0 -14.2658
      vertex 54.6353 -1 -14.2658
    endloop
  endfacet
  facet normal 0.207912 0 -0.978148
    outer loop
      vertex 54.6353 0 -14.2658
      vertex 51.5679 -1 -14.9178
      vertex 51.5679 0 -14.9178
    endloop
  endfacet
  facet normal 0.207912 0 -0.978148
    outer loop
      vertex 51.5679 -30 -14.9178
      vertex 54.6353 -7 -14.2658
      vertex 54.6353 -30 -14.2658
    endloop
  endfacet
  facet normal 0.207912 0 -0.978148
    outer loop
      vertex 54.6353 -7 -14.2658
      vertex 51.5679 -30 -14.9178
      vertex 51.5679 -7 -14.9178
    endloop
  endfacet
  facet normal -0.743145 0 0.66913
    outer loop
      vertex 37.8647 -1 8.81678
      vertex 39.963 0 11.1472
      vertex 37.8647 0 8.81678
    endloop
  endfacet
  facet normal -0.743145 0 0.66913
    outer loop
      vertex 39.963 0 11.1472
      vertex 37.8647 -1 8.81678
      vertex 39.963 -1 11.1472
    endloop
  endfacet
  facet normal -0.743145 0 0.66913
    outer loop
      vertex 37.8647 -30 8.81678
      vertex 39.963 -7 11.1472
      vertex 37.8647 -7 8.81678
    endloop
  endfacet
  facet normal -0.743145 0 0.66913
    outer loop
      vertex 39.963 -7 11.1472
      vertex 37.8647 -30 8.81678
      vertex 39.963 -30 11.1472
    endloop
  endfacet
  facet normal -0.587785 0 0.809017
    outer loop
      vertex 39.963 0 11.1472
      vertex 42.5 -1 12.9904
      vertex 42.5 0 12.9904
    endloop
  endfacet
  facet normal -0.587785 0 0.809017
    outer loop
      vertex 42.5 -1 12.9904
      vertex 39.963 0 11.1472
      vertex 39.963 -1 11.1472
    endloop
  endfacet
  facet normal -0.587785 0 0.809017
    outer loop
      vertex 39.963 -7 11.1472
      vertex 42.5 -30 12.9904
      vertex 42.5 -7 12.9904
    endloop
  endfacet
  facet normal -0.587785 0 0.809017
    outer loop
      vertex 42.5 -30 12.9904
      vertex 39.963 -7 11.1472
      vertex 39.963 -30 11.1472
    endloop
  endfacet
  facet normal -0.406737 0 0.913545
    outer loop
      vertex 42.5 0 12.9904
      vertex 45.3647 -1 14.2658
      vertex 45.3647 0 14.2658
    endloop
  endfacet
  facet normal -0.406737 0 0.913545
    outer loop
      vertex 45.3647 -1 14.2658
      vertex 42.5 0 12.9904
      vertex 42.5 -1 12.9904
    endloop
  endfacet
  facet normal -0.406737 0 0.913545
    outer loop
      vertex 42.5 -7 12.9904
      vertex 45.3647 -30 14.2658
      vertex 45.3647 -7 14.2658
    endloop
  endfacet
  facet normal -0.406737 0 0.913545
    outer loop
      vertex 45.3647 -30 14.2658
      vertex 42.5 -7 12.9904
      vertex 42.5 -30 12.9904
    endloop
  endfacet
  facet normal -0 -1 -0
    outer loop
      vertex 54.6353 -30 14.2658
      vertex 51.5679 -30 14.9178
      vertex 63.7032 -30 6.10105
    endloop
  endfacet
  facet normal 0.207912 0 0.978148
    outer loop
      vertex 51.5679 0 14.9178
      vertex 54.6353 -1 14.2658
      vertex 54.6353 0 14.2658
    endloop
  endfacet
  facet normal 0.207912 0 0.978148
    outer loop
      vertex 54.6353 -1 14.2658
      vertex 51.5679 0 14.9178
      vertex 51.5679 -1 14.9178
    endloop
  endfacet
  facet normal 0.207912 0 0.978148
    outer loop
      vertex 51.5679 -7 14.9178
      vertex 54.6353 -30 14.2658
      vertex 54.6353 -7 14.2658
    endloop
  endfacet
  facet normal 0.207912 0 0.978148
    outer loop
      vertex 54.6353 -30 14.2658
      vertex 51.5679 -7 14.9178
      vertex 51.5679 -30 14.9178
    endloop
  endfacet
  facet normal 0.743145 -0 0.669131
    outer loop
      vertex 60.037 -1 11.1472
      vertex 62.1353 0 8.81678
      vertex 60.037 0 11.1472
    endloop
  endfacet
  facet normal 0.743145 0 0.669131
    outer loop
      vertex 62.1353 0 8.81678
      vertex 60.037 -1 11.1472
      vertex 62.1353 -1 8.81678
    endloop
  endfacet
  facet normal 0.743145 -0 0.669131
    outer loop
      vertex 60.037 -30 11.1472
      vertex 62.1353 -7 8.81678
      vertex 60.037 -7 11.1472
    endloop
  endfacet
  facet normal 0.743145 0 0.669131
    outer loop
      vertex 62.1353 -7 8.81678
      vertex 60.037 -30 11.1472
      vertex 62.1353 -30 8.81678
    endloop
  endfacet
  facet normal -0.406737 0 -0.913545
    outer loop
      vertex 42.5 -1 -12.9904
      vertex 45.3647 0 -14.2658
      vertex 45.3647 -1 -14.2658
    endloop
  endfacet
  facet normal -0.406737 0 -0.913545
    outer loop
      vertex 45.3647 0 -14.2658
      vertex 42.5 -1 -12.9904
      vertex 42.5 0 -12.9904
    endloop
  endfacet
  facet normal -0.406737 0 -0.913545
    outer loop
      vertex 42.5 -30 -12.9904
      vertex 45.3647 -7 -14.2658
      vertex 45.3647 -30 -14.2658
    endloop
  endfacet
  facet normal -0.406737 0 -0.913545
    outer loop
      vertex 45.3647 -7 -14.2658
      vertex 42.5 -30 -12.9904
      vertex 42.5 -7 -12.9904
    endloop
  endfacet
  facet normal 0.743145 0 -0.669131
    outer loop
      vertex 62.1353 -1 -8.81678
      vertex 60.037 0 -11.1472
      vertex 62.1353 0 -8.81678
    endloop
  endfacet
  facet normal 0.743145 0 -0.669131
    outer loop
      vertex 60.037 0 -11.1472
      vertex 62.1353 -1 -8.81678
      vertex 60.037 -1 -11.1472
    endloop
  endfacet
  facet normal 0.743145 0 -0.669131
    outer loop
      vertex 62.1353 -30 -8.81678
      vertex 60.037 -7 -11.1472
      vertex 62.1353 -7 -8.81678
    endloop
  endfacet
  facet normal 0.743145 0 -0.669131
    outer loop
      vertex 60.037 -7 -11.1472
      vertex 62.1353 -30 -8.81678
      vertex 60.037 -30 -11.1472
    endloop
  endfacet
  facet normal 0 1 0
    outer loop
      vertex 51.1498 0 10.9397
      vertex 51.5679 0 14.9178
      vertex 54.6353 0 14.2658
    endloop
  endfacet
  facet normal 0 1 0
    outer loop
      vertex 51.5679 0 14.9178
      vertex 51.1498 0 10.9397
      vertex 48.4321 0 14.9178
    endloop
  endfacet
  facet normal 0 1 0
    outer loop
      vertex 53.3992 0 10.4616
      vertex 54.6353 0 14.2658
      vertex 57.5 0 12.9904
    endloop
  endfacet
  facet normal 0 1 -0
    outer loop
      vertex 48.8502 0 10.9397
      vertex 48.4321 0 14.9178
      vertex 51.1498 0 10.9397
    endloop
  endfacet
  facet normal 0 1 0
    outer loop
      vertex 55.5 0 9.52628
      vertex 57.5 0 12.9904
      vertex 60.037 0 11.1472
    endloop
  endfacet
  facet normal 0 1 0
    outer loop
      vertex 48.4321 0 14.9178
      vertex 48.8502 0 10.9397
      vertex 45.3647 0 14.2658
    endloop
  endfacet
  facet normal 0 1 -0
    outer loop
      vertex 46.6008 0 10.4616
      vertex 45.3647 0 14.2658
      vertex 48.8502 0 10.9397
    endloop
  endfacet
  facet normal 0 1 0
    outer loop
      vertex 54.6353 0 14.2658
      vertex 53.3992 0 10.4616
      vertex 51.1498 0 10.9397
    endloop
  endfacet
  facet normal 0 1 0
    outer loop
      vertex 57.5 0 12.9904
      vertex 55.5 0 9.52628
      vertex 53.3992 0 10.4616
    endloop
  endfacet
  facet normal 0 1 0
    outer loop
      vertex 57.3604 0 8.17459
      vertex 60.037 0 11.1472
      vertex 62.1353 0 8.81678
    endloop
  endfacet
  facet normal 0 1 0
    outer loop
      vertex 60.037 0 11.1472
      vertex 57.3604 0 8.17459
      vertex 55.5 0 9.52628
    endloop
  endfacet
  facet normal 0 1 0
    outer loop
      vertex 62.1353 0 8.81678
      vertex 58.8992 0 6.46564
      vertex 57.3604 0 8.17459
    endloop
  endfacet
  facet normal 0 1 0
    outer loop
      vertex 63.7032 0 6.10105
      vertex 58.8992 0 6.46564
      vertex 62.1353 0 8.81678
    endloop
  endfacet
  facet normal 0 1 0
    outer loop
      vertex 63.7032 0 6.10105
      vertex 60.049 0 4.4741
      vertex 58.8992 0 6.46564
    endloop
  endfacet
  facet normal 0 1 0
    outer loop
      vertex 64.6722 0 3.11868
      vertex 60.049 0 4.4741
      vertex 63.7032 0 6.10105
    endloop
  endfacet
  facet normal 0 1 0
    outer loop
      vertex 64.6722 0 3.11868
      vertex 60.7596 0 2.28703
      vertex 60.049 0 4.4741
    endloop
  endfacet
  facet normal 0 1 0
    outer loop
      vertex 65 0 0
      vertex 60.7596 0 2.28703
      vertex 64.6722 0 3.11868
    endloop
  endfacet
  facet normal 0 1 0
    outer loop
      vertex 65 0 0
      vertex 61 0 0
      vertex 60.7596 0 2.28703
    endloop
  endfacet
  facet normal 0 1 0
    outer loop
      vertex 65 0 0
      vertex 60.7596 0 -2.28703
      vertex 61 0 0
    endloop
  endfacet
  facet normal 0 1 -0
    outer loop
      vertex 64.6722 0 -3.11868
      vertex 60.7596 0 -2.28703
      vertex 65 0 0
    endloop
  endfacet
  facet normal 0 1 0
    outer loop
      vertex 64.6722 0 -3.11868
      vertex 60.049 0 -4.4741
      vertex 60.7596 0 -2.28703
    endloop
  endfacet
  facet normal 0 1 -0
    outer loop
      vertex 63.7032 0 -6.10105
      vertex 60.049 0 -4.4741
      vertex 64.6722 0 -3.11868
    endloop
  endfacet
  facet normal 0 1 0
    outer loop
      vertex 63.7032 0 -6.10105
      vertex 58.8992 0 -6.46564
      vertex 60.049 0 -4.4741
    endloop
  endfacet
  facet normal 0 1 -0
    outer loop
      vertex 62.1353 0 -8.81678
      vertex 58.8992 0 -6.46564
      vertex 63.7032 0 -6.10105
    endloop
  endfacet
  facet normal 0 1 0
    outer loop
      vertex 58.8992 0 -6.46564
      vertex 62.1353 0 -8.81678
      vertex 57.3604 0 -8.17459
    endloop
  endfacet
  facet normal 0 1 -0
    outer loop
      vertex 60.037 0 -11.1472
      vertex 57.3604 0 -8.17459
      vertex 62.1353 0 -8.81678
    endloop
  endfacet
  facet normal 0 1 0
    outer loop
      vertex 57.3604 0 -8.17459
      vertex 60.037 0 -11.1472
      vertex 55.5 0 -9.52628
    endloop
  endfacet
  facet normal 0 1 -0
    outer loop
      vertex 57.5 0 -12.9904
      vertex 55.5 0 -9.52628
      vertex 60.037 0 -11.1472
    endloop
  endfacet
  facet normal 0 1 -0
    outer loop
      vertex 54.6353 0 -14.2658
      vertex 53.3992 0 -10.4616
      vertex 57.5 0 -12.9904
    endloop
  endfacet
  facet normal 0 1 0
    outer loop
      vertex 55.5 0 -9.52628
      vertex 57.5 0 -12.9904
      vertex 53.3992 0 -10.4616
    endloop
  endfacet
  facet normal 0 1 0
    outer loop
      vertex 45.3647 0 14.2658
      vertex 46.6008 0 10.4616
      vertex 42.5 0 12.9904
    endloop
  endfacet
  facet normal 0 1 -0
    outer loop
      vertex 44.5 0 9.52628
      vertex 42.5 0 12.9904
      vertex 46.6008 0 10.4616
    endloop
  endfacet
  facet normal 0 1 0
    outer loop
      vertex 42.5 0 12.9904
      vertex 44.5 0 9.52628
      vertex 39.963 0 11.1472
    endloop
  endfacet
  facet normal 0 1 -0
    outer loop
      vertex 42.6396 0 8.17459
      vertex 39.963 0 11.1472
      vertex 44.5 0 9.52628
    endloop
  endfacet
  facet normal 0 1 0
    outer loop
      vertex 39.963 0 11.1472
      vertex 42.6396 0 8.17459
      vertex 37.8647 0 8.81678
    endloop
  endfacet
  facet normal 0 1 -0
    outer loop
      vertex 41.1008 0 6.46564
      vertex 37.8647 0 8.81678
      vertex 42.6396 0 8.17459
    endloop
  endfacet
  facet normal 0 1 0
    outer loop
      vertex 41.1008 0 6.46564
      vertex 36.2968 0 6.10105
      vertex 37.8647 0 8.81678
    endloop
  endfacet
  facet normal 0 1 -0
    outer loop
      vertex 39.951 0 4.4741
      vertex 36.2968 0 6.10105
      vertex 41.1008 0 6.46564
    endloop
  endfacet
  facet normal 0 1 0
    outer loop
      vertex 39.951 0 4.4741
      vertex 35.3278 0 3.11868
      vertex 36.2968 0 6.10105
    endloop
  endfacet
  facet normal 0 1 -0
    outer loop
      vertex 39.2404 0 2.28703
      vertex 35.3278 0 3.11868
      vertex 39.951 0 4.4741
    endloop
  endfacet
  facet normal 0 1 -0
    outer loop
      vertex 39 0 0
      vertex 35.3278 0 3.11868
      vertex 39.2404 0 2.28703
    endloop
  endfacet
  facet normal 0 1 0
    outer loop
      vertex 39 0 0
      vertex 35 0 0
      vertex 35.3278 0 3.11868
    endloop
  endfacet
  facet normal 0 1 0
    outer loop
      vertex 39.2404 0 -2.28703
      vertex 35 0 0
      vertex 39 0 0
    endloop
  endfacet
  facet normal 0 1 0
    outer loop
      vertex 39.2404 0 -2.28703
      vertex 35.3278 0 -3.11868
      vertex 35 0 0
    endloop
  endfacet
  facet normal 0 1 0
    outer loop
      vertex 39.951 0 -4.4741
      vertex 35.3278 0 -3.11868
      vertex 39.2404 0 -2.28703
    endloop
  endfacet
  facet normal 0 1 0
    outer loop
      vertex 39.951 0 -4.4741
      vertex 36.2968 0 -6.10105
      vertex 35.3278 0 -3.11868
    endloop
  endfacet
  facet normal 0 1 0
    outer loop
      vertex 41.1008 0 -6.46564
      vertex 36.2968 0 -6.10105
      vertex 39.951 0 -4.4741
    endloop
  endfacet
  facet normal 0 1 0
    outer loop
      vertex 37.8647 0 -8.81678
      vertex 41.1008 0 -6.46564
      vertex 42.6396 0 -8.17459
    endloop
  endfacet
  facet normal 0 1 0
    outer loop
      vertex 41.1008 0 -6.46564
      vertex 37.8647 0 -8.81678
      vertex 36.2968 0 -6.10105
    endloop
  endfacet
  facet normal 0 1 0
    outer loop
      vertex 39.963 0 -11.1472
      vertex 42.6396 0 -8.17459
      vertex 44.5 0 -9.52628
    endloop
  endfacet
  facet normal 0 1 0
    outer loop
      vertex 42.5 0 -12.9904
      vertex 44.5 0 -9.52628
      vertex 46.6008 0 -10.4616
    endloop
  endfacet
  facet normal 0 1 0
    outer loop
      vertex 45.3647 0 -14.2658
      vertex 46.6008 0 -10.4616
      vertex 48.8502 0 -10.9397
    endloop
  endfacet
  facet normal 0 1 0
    outer loop
      vertex 42.6396 0 -8.17459
      vertex 39.963 0 -11.1472
      vertex 37.8647 0 -8.81678
    endloop
  endfacet
  facet normal 0 1 0
    outer loop
      vertex 53.3992 0 -10.4616
      vertex 54.6353 0 -14.2658
      vertex 51.1498 0 -10.9397
    endloop
  endfacet
  facet normal 0 1 -0
    outer loop
      vertex 51.5679 0 -14.9178
      vertex 51.1498 0 -10.9397
      vertex 54.6353 0 -14.2658
    endloop
  endfacet
  facet normal 0 1 0
    outer loop
      vertex 44.5 0 -9.52628
      vertex 42.5 0 -12.9904
      vertex 39.963 0 -11.1472
    endloop
  endfacet
  facet normal 0 1 0
    outer loop
      vertex 51.1498 0 -10.9397
      vertex 51.5679 0 -14.9178
      vertex 48.8502 0 -10.9397
    endloop
  endfacet
  facet normal 0 1 0
    outer loop
      vertex 46.6008 0 -10.4616
      vertex 45.3647 0 -14.2658
      vertex 42.5 0 -12.9904
    endloop
  endfacet
  facet normal 0 1 0
    outer loop
      vertex 48.4321 0 -14.9178
      vertex 48.8502 0 -10.9397
      vertex 51.5679 0 -14.9178
    endloop
  endfacet
  facet normal 0 1 0
    outer loop
      vertex 48.8502 0 -10.9397
      vertex 48.4321 0 -14.9178
      vertex 45.3647 0 -14.2658
    endloop
  endfacet
  facet normal 0 -1 0
    outer loop
      vertex 48.4321 -30 14.9178
      vertex 48.8502 -30 10.9397
      vertex 51.5679 -30 14.9178
    endloop
  endfacet
  facet normal 0 -1 -0
    outer loop
      vertex 48.4321 -30 14.9178
      vertex 46.6008 -30 10.4616
      vertex 48.8502 -30 10.9397
    endloop
  endfacet
  facet normal 0 -1 0
    outer loop
      vertex 48.4321 -30 14.9178
      vertex 44.5 -30 9.52628
      vertex 46.6008 -30 10.4616
    endloop
  endfacet
  facet normal 0 -1 0
    outer loop
      vertex 48.4321 -30 14.9178
      vertex 42.6396 -30 8.17459
      vertex 44.5 -30 9.52628
    endloop
  endfacet
  facet normal 0 -1 0
    outer loop
      vertex 36.2968 -30 6.10105
      vertex 42.6396 -30 8.17459
      vertex 48.4321 -30 14.9178
    endloop
  endfacet
  facet normal 0 -1 0
    outer loop
      vertex 42.6396 -30 8.17459
      vertex 36.2968 -30 6.10105
      vertex 41.1008 -30 6.46564
    endloop
  endfacet
  facet normal 0 -1 0
    outer loop
      vertex 41.1008 -30 6.46564
      vertex 36.2968 -30 6.10105
      vertex 40.8903 -30 6.10105
    endloop
  endfacet
  facet normal 0 -1 0
    outer loop
      vertex 51.1498 -30 10.9397
      vertex 51.5679 -30 14.9178
      vertex 48.8502 -30 10.9397
    endloop
  endfacet
  facet normal 0 -1 0
    outer loop
      vertex 53.3992 -30 10.4616
      vertex 51.5679 -30 14.9178
      vertex 51.1498 -30 10.9397
    endloop
  endfacet
  facet normal 0 -1 0
    outer loop
      vertex 55.5 -30 9.52628
      vertex 51.5679 -30 14.9178
      vertex 53.3992 -30 10.4616
    endloop
  endfacet
  facet normal 0 -1 0
    outer loop
      vertex 57.3604 -30 8.17459
      vertex 51.5679 -30 14.9178
      vertex 55.5 -30 9.52628
    endloop
  endfacet
  facet normal 0 -1 0
    outer loop
      vertex 63.7032 -30 6.10105
      vertex 57.3604 -30 8.17459
      vertex 58.8992 -30 6.46564
    endloop
  endfacet
  facet normal 0 -1 0
    outer loop
      vertex 57.3604 -30 8.17459
      vertex 63.7032 -30 6.10105
      vertex 51.5679 -30 14.9178
    endloop
  endfacet
  facet normal 0 -1 0
    outer loop
      vertex 63.7032 -30 6.10105
      vertex 58.8992 -30 6.46564
      vertex 59.1097 -30 6.10105
    endloop
  endfacet
  facet normal -0 -1 -0
    outer loop
      vertex 60.037 -30 11.1472
      vertex 57.5 -30 12.9904
      vertex 63.7032 -30 6.10105
    endloop
  endfacet
  facet normal 0.587786 0 0.809017
    outer loop
      vertex 57.5 0 12.9904
      vertex 60.037 -1 11.1472
      vertex 60.037 0 11.1472
    endloop
  endfacet
  facet normal 0.587786 0 0.809017
    outer loop
      vertex 60.037 -1 11.1472
      vertex 57.5 0 12.9904
      vertex 57.5 -1 12.9904
    endloop
  endfacet
  facet normal 0.587786 0 0.809017
    outer loop
      vertex 57.5 -7 12.9904
      vertex 60.037 -30 11.1472
      vertex 60.037 -7 11.1472
    endloop
  endfacet
  facet normal 0.587786 0 0.809017
    outer loop
      vertex 60.037 -30 11.1472
      vertex 57.5 -7 12.9904
      vertex 57.5 -30 12.9904
    endloop
  endfacet
  facet normal 0.866025 -0 0.5
    outer loop
      vertex 62.1353 -1 8.81678
      vertex 63.7032 0 6.10105
      vertex 62.1353 0 8.81678
    endloop
  endfacet
  facet normal 0.866025 0 0.5
    outer loop
      vertex 63.7032 0 6.10105
      vertex 62.1353 -1 8.81678
      vertex 63.7032 -1 6.10105
    endloop
  endfacet
  facet normal 0.866025 -0 0.5
    outer loop
      vertex 62.1353 -30 8.81678
      vertex 63.7032 -7 6.10105
      vertex 62.1353 -7 8.81678
    endloop
  endfacet
  facet normal 0.866025 0 0.5
    outer loop
      vertex 63.7032 -7 6.10105
      vertex 62.1353 -30 8.81678
      vertex 63.7032 -30 6.10105
    endloop
  endfacet
  facet normal -0.866025 0 -0.5
    outer loop
      vertex 37.8647 -1 -8.81678
      vertex 36.2968 0 -6.10105
      vertex 37.8647 0 -8.81678
    endloop
  endfacet
  facet normal -0.866025 -0 -0.5
    outer loop
      vertex 36.2968 0 -6.10105
      vertex 37.8647 -1 -8.81678
      vertex 36.2968 -1 -6.10105
    endloop
  endfacet
  facet normal -0.866025 0 -0.5
    outer loop
      vertex 37.8647 -30 -8.81678
      vertex 36.2968 -7 -6.10105
      vertex 37.8647 -7 -8.81678
    endloop
  endfacet
  facet normal -0.866025 -0 -0.5
    outer loop
      vertex 36.2968 -7 -6.10105
      vertex 37.8647 -30 -8.81678
      vertex 36.2968 -30 -6.10105
    endloop
  endfacet
  facet normal -0.743145 0 -0.66913
    outer loop
      vertex 39.963 -1 -11.1472
      vertex 37.8647 0 -8.81678
      vertex 39.963 0 -11.1472
    endloop
  endfacet
  facet normal -0.743145 -0 -0.66913
    outer loop
      vertex 37.8647 0 -8.81678
      vertex 39.963 -1 -11.1472
      vertex 37.8647 -1 -8.81678
    endloop
  endfacet
  facet normal -0.743145 0 -0.66913
    outer loop
      vertex 39.963 -30 -11.1472
      vertex 37.8647 -7 -8.81678
      vertex 39.963 -7 -11.1472
    endloop
  endfacet
  facet normal -0.743145 -0 -0.66913
    outer loop
      vertex 37.8647 -7 -8.81678
      vertex 39.963 -30 -11.1472
      vertex 37.8647 -30 -8.81678
    endloop
  endfacet
  facet normal -0.587785 0 -0.809017
    outer loop
      vertex 39.963 -1 -11.1472
      vertex 42.5 0 -12.9904
      vertex 42.5 -1 -12.9904
    endloop
  endfacet
  facet normal -0.587785 0 -0.809017
    outer loop
      vertex 42.5 0 -12.9904
      vertex 39.963 -1 -11.1472
      vertex 39.963 0 -11.1472
    endloop
  endfacet
  facet normal -0.587785 0 -0.809017
    outer loop
      vertex 39.963 -30 -11.1472
      vertex 42.5 -7 -12.9904
      vertex 42.5 -30 -12.9904
    endloop
  endfacet
  facet normal -0.587785 0 -0.809017
    outer loop
      vertex 42.5 -7 -12.9904
      vertex 39.963 -30 -11.1472
      vertex 39.963 -7 -11.1472
    endloop
  endfacet
  facet normal -0.207912 0 -0.978148
    outer loop
      vertex 45.3647 -1 -14.2658
      vertex 48.4321 0 -14.9178
      vertex 48.4321 -1 -14.9178
    endloop
  endfacet
  facet normal -0.207912 0 -0.978148
    outer loop
      vertex 48.4321 0 -14.9178
      vertex 45.3647 -1 -14.2658
      vertex 45.3647 0 -14.2658
    endloop
  endfacet
  facet normal -0.207912 0 -0.978148
    outer loop
      vertex 45.3647 -30 -14.2658
      vertex 48.4321 -7 -14.9178
      vertex 48.4321 -30 -14.9178
    endloop
  endfacet
  facet normal -0.207912 0 -0.978148
    outer loop
      vertex 48.4321 -7 -14.9178
      vertex 45.3647 -30 -14.2658
      vertex 45.3647 -7 -14.2658
    endloop
  endfacet
  facet normal 0 0 -1
    outer loop
      vertex 48.4321 -1 -14.9178
      vertex 51.5679 0 -14.9178
      vertex 51.5679 -1 -14.9178
    endloop
  endfacet
  facet normal -0 0 -1
    outer loop
      vertex 51.5679 0 -14.9178
      vertex 48.4321 -1 -14.9178
      vertex 48.4321 0 -14.9178
    endloop
  endfacet
  facet normal 0 0 -1
    outer loop
      vertex 48.4321 -30 -14.9178
      vertex 51.5679 -7 -14.9178
      vertex 51.5679 -30 -14.9178
    endloop
  endfacet
  facet normal -0 0 -1
    outer loop
      vertex 51.5679 -7 -14.9178
      vertex 48.4321 -30 -14.9178
      vertex 48.4321 -7 -14.9178
    endloop
  endfacet
  facet normal 0.406737 0 -0.913545
    outer loop
      vertex 54.6353 -1 -14.2658
      vertex 57.5 0 -12.9904
      vertex 57.5 -1 -12.9904
    endloop
  endfacet
  facet normal 0.406737 0 -0.913545
    outer loop
      vertex 57.5 0 -12.9904
      vertex 54.6353 -1 -14.2658
      vertex 54.6353 0 -14.2658
    endloop
  endfacet
  facet normal 0.406737 0 -0.913545
    outer loop
      vertex 54.6353 -30 -14.2658
      vertex 57.5 -7 -12.9904
      vertex 57.5 -30 -12.9904
    endloop
  endfacet
  facet normal 0.406737 0 -0.913545
    outer loop
      vertex 57.5 -7 -12.9904
      vertex 54.6353 -30 -14.2658
      vertex 54.6353 -7 -14.2658
    endloop
  endfacet
  facet normal 0.587786 0 -0.809017
    outer loop
      vertex 57.5 -1 -12.9904
      vertex 60.037 0 -11.1472
      vertex 60.037 -1 -11.1472
    endloop
  endfacet
  facet normal 0.587786 0 -0.809017
    outer loop
      vertex 60.037 0 -11.1472
      vertex 57.5 -1 -12.9904
      vertex 57.5 0 -12.9904
    endloop
  endfacet
  facet normal 0.587786 0 -0.809017
    outer loop
      vertex 57.5 -30 -12.9904
      vertex 60.037 -7 -11.1472
      vertex 60.037 -30 -11.1472
    endloop
  endfacet
  facet normal 0.587786 0 -0.809017
    outer loop
      vertex 60.037 -7 -11.1472
      vertex 57.5 -30 -12.9904
      vertex 57.5 -7 -12.9904
    endloop
  endfacet
  facet normal 0.866025 0 -0.5
    outer loop
      vertex 63.7032 -1 -6.10105
      vertex 62.1353 0 -8.81678
      vertex 63.7032 0 -6.10105
    endloop
  endfacet
  facet normal 0.866025 0 -0.5
    outer loop
      vertex 62.1353 0 -8.81678
      vertex 63.7032 -1 -6.10105
      vertex 62.1353 -1 -8.81678
    endloop
  endfacet
  facet normal 0.866025 0 -0.5
    outer loop
      vertex 63.7032 -30 -6.10105
      vertex 62.1353 -7 -8.81678
      vertex 63.7032 -7 -6.10105
    endloop
  endfacet
  facet normal 0.866025 0 -0.5
    outer loop
      vertex 62.1353 -7 -8.81678
      vertex 63.7032 -30 -6.10105
      vertex 62.1353 -30 -8.81678
    endloop
  endfacet
  facet normal 0.951057 0 -0.309016
    outer loop
      vertex 64.6722 -1 -3.11868
      vertex 63.7032 0 -6.10105
      vertex 64.6722 0 -3.11868
    endloop
  endfacet
  facet normal 0.951057 0 -0.309016
    outer loop
      vertex 63.7032 0 -6.10105
      vertex 64.6722 -1 -3.11868
      vertex 63.7032 -1 -6.10105
    endloop
  endfacet
  facet normal 0.951057 0 -0.309016
    outer loop
      vertex 64.6722 -30 -3.11868
      vertex 63.7032 -7 -6.10105
      vertex 64.6722 -7 -3.11868
    endloop
  endfacet
  facet normal 0.951057 0 -0.309016
    outer loop
      vertex 63.7032 -7 -6.10105
      vertex 64.6722 -30 -3.11868
      vertex 63.7032 -30 -6.10105
    endloop
  endfacet
  facet normal 0.994522 0 -0.10453
    outer loop
      vertex 65 -1 0
      vertex 64.6722 0 -3.11868
      vertex 65 0 0
    endloop
  endfacet
  facet normal 0.994522 0 -0.10453
    outer loop
      vertex 64.6722 0 -3.11868
      vertex 65 -1 0
      vertex 64.6722 -1 -3.11868
    endloop
  endfacet
  facet normal 0.994522 0 -0.10453
    outer loop
      vertex 65 -30 0
      vertex 64.6722 -7 -3.11868
      vertex 65 -7 0
    endloop
  endfacet
  facet normal 0.994522 0 -0.10453
    outer loop
      vertex 64.6722 -7 -3.11868
      vertex 65 -30 0
      vertex 64.6722 -30 -3.11868
    endloop
  endfacet
  facet normal -0.994522 0 0.104528
    outer loop
      vertex 35 -1 0
      vertex 35.3278 0 3.11868
      vertex 35 0 0
    endloop
  endfacet
  facet normal -0.994522 0 0.104528
    outer loop
      vertex 35.3278 0 3.11868
      vertex 35 -1 0
      vertex 35.3278 -1 3.11868
    endloop
  endfacet
  facet normal -0.994522 0 0.104528
    outer loop
      vertex 35 -30 0
      vertex 35.3278 -7 3.11868
      vertex 35 -7 0
    endloop
  endfacet
  facet normal -0.994522 0 0.104528
    outer loop
      vertex 35.3278 -7 3.11868
      vertex 35 -30 0
      vertex 35.3278 -30 3.11868
    endloop
  endfacet
  facet normal -0.994522 0 -0.104528
    outer loop
      vertex 35.3278 -1 -3.11868
      vertex 35 0 0
      vertex 35.3278 0 -3.11868
    endloop
  endfacet
  facet normal -0.994522 -0 -0.104528
    outer loop
      vertex 35 0 0
      vertex 35.3278 -1 -3.11868
      vertex 35 -1 0
    endloop
  endfacet
  facet normal -0.994522 0 -0.104528
    outer loop
      vertex 35.3278 -30 -3.11868
      vertex 35 -7 0
      vertex 35.3278 -7 -3.11868
    endloop
  endfacet
  facet normal -0.994522 -0 -0.104528
    outer loop
      vertex 35 -7 0
      vertex 35.3278 -30 -3.11868
      vertex 35 -30 0
    endloop
  endfacet
  facet normal 0 -1 -0
    outer loop
      vertex 37.8647 -30 8.81678
      vertex 36.2968 -30 6.10105
      vertex 39.963 -30 11.1472
    endloop
  endfacet
  facet normal -0.866025 0 0.5
    outer loop
      vertex 36.2968 -1 6.10105
      vertex 37.8647 0 8.81678
      vertex 36.2968 0 6.10105
    endloop
  endfacet
  facet normal -0.866025 0 0.5
    outer loop
      vertex 37.8647 0 8.81678
      vertex 36.2968 -1 6.10105
      vertex 37.8647 -1 8.81678
    endloop
  endfacet
  facet normal -0.866025 0 0.5
    outer loop
      vertex 36.2968 -30 6.10105
      vertex 37.8647 -7 8.81678
      vertex 36.2968 -7 6.10105
    endloop
  endfacet
  facet normal -0.866025 0 0.5
    outer loop
      vertex 37.8647 -7 8.81678
      vertex 36.2968 -30 6.10105
      vertex 37.8647 -30 8.81678
    endloop
  endfacet
  facet normal -0 0 1
    outer loop
      vertex 48.4321 0 14.9178
      vertex 51.5679 -1 14.9178
      vertex 51.5679 0 14.9178
    endloop
  endfacet
  facet normal 0 0 1
    outer loop
      vertex 51.5679 -1 14.9178
      vertex 48.4321 0 14.9178
      vertex 48.4321 -1 14.9178
    endloop
  endfacet
  facet normal -0 0 1
    outer loop
      vertex 48.4321 -7 14.9178
      vertex 51.5679 -30 14.9178
      vertex 51.5679 -7 14.9178
    endloop
  endfacet
  facet normal 0 0 1
    outer loop
      vertex 51.5679 -30 14.9178
      vertex 48.4321 -7 14.9178
      vertex 48.4321 -30 14.9178
    endloop
  endfacet
  facet normal -0 -1 -0
    outer loop
      vertex 57.5 -30 12.9904
      vertex 54.6353 -30 14.2658
      vertex 63.7032 -30 6.10105
    endloop
  endfacet
  facet normal -0 -1 -0
    outer loop
      vertex 62.1353 -30 8.81678
      vertex 60.037 -30 11.1472
      vertex 63.7032 -30 6.10105
    endloop
  endfacet
  facet normal 0 -1 0
    outer loop
      vertex 36.2968 -30 6.10105
      vertex 39.951 -30 4.4741
      vertex 40.8903 -30 6.10105
    endloop
  endfacet
  facet normal 0 -1 0
    outer loop
      vertex 35.3278 -30 3.11868
      vertex 39.951 -30 4.4741
      vertex 36.2968 -30 6.10105
    endloop
  endfacet
  facet normal 0 -1 0
    outer loop
      vertex 35.3278 -30 3.11868
      vertex 39.2404 -30 2.28703
      vertex 39.951 -30 4.4741
    endloop
  endfacet
  facet normal 0 -1 0
    outer loop
      vertex 35 -30 0
      vertex 39.2404 -30 2.28703
      vertex 35.3278 -30 3.11868
    endloop
  endfacet
  facet normal 0 -1 0
    outer loop
      vertex 35 -30 0
      vertex 39 -30 0
      vertex 39.2404 -30 2.28703
    endloop
  endfacet
  facet normal 0 -1 0
    outer loop
      vertex 35 -30 0
      vertex 39.2404 -30 -2.28703
      vertex 39 -30 0
    endloop
  endfacet
  facet normal 0 -1 0
    outer loop
      vertex 35.3278 -30 -3.11868
      vertex 39.2404 -30 -2.28703
      vertex 35 -30 0
    endloop
  endfacet
  facet normal 0 -1 0
    outer loop
      vertex 35.3278 -30 -3.11868
      vertex 39.951 -30 -4.4741
      vertex 39.2404 -30 -2.28703
    endloop
  endfacet
  facet normal 0 -1 0
    outer loop
      vertex 36.2968 -30 -6.10105
      vertex 39.951 -30 -4.4741
      vertex 35.3278 -30 -3.11868
    endloop
  endfacet
  facet normal 0 -1 0
    outer loop
      vertex 36.2968 -30 -6.10105
      vertex 41.1008 -30 -6.46564
      vertex 39.951 -30 -4.4741
    endloop
  endfacet
  facet normal 0 -1 0
    outer loop
      vertex 37.8647 -30 -8.81678
      vertex 41.1008 -30 -6.46564
      vertex 36.2968 -30 -6.10105
    endloop
  endfacet
  facet normal 0 -1 -0
    outer loop
      vertex 41.1008 -30 -6.46564
      vertex 37.8647 -30 -8.81678
      vertex 42.6396 -30 -8.17459
    endloop
  endfacet
  facet normal 0 -1 0
    outer loop
      vertex 39.963 -30 -11.1472
      vertex 42.6396 -30 -8.17459
      vertex 37.8647 -30 -8.81678
    endloop
  endfacet
  facet normal 0 -1 -0
    outer loop
      vertex 42.6396 -30 -8.17459
      vertex 39.963 -30 -11.1472
      vertex 44.5 -30 -9.52628
    endloop
  endfacet
  facet normal 0 -1 0
    outer loop
      vertex 42.5 -30 -12.9904
      vertex 44.5 -30 -9.52628
      vertex 39.963 -30 -11.1472
    endloop
  endfacet
  facet normal 0 -1 0
    outer loop
      vertex 45.3647 -30 -14.2658
      vertex 46.6008 -30 -10.4616
      vertex 42.5 -30 -12.9904
    endloop
  endfacet
  facet normal 0 -1 -0
    outer loop
      vertex 44.5 -30 -9.52628
      vertex 42.5 -30 -12.9904
      vertex 46.6008 -30 -10.4616
    endloop
  endfacet
  facet normal 0 -1 0
    outer loop
      vertex 60.049 -30 4.4741
      vertex 63.7032 -30 6.10105
      vertex 59.1097 -30 6.10105
    endloop
  endfacet
  facet normal 0 -1 0
    outer loop
      vertex 60.049 -30 4.4741
      vertex 64.6722 -30 3.11868
      vertex 63.7032 -30 6.10105
    endloop
  endfacet
  facet normal 0 -1 0
    outer loop
      vertex 60.7596 -30 2.28703
      vertex 64.6722 -30 3.11868
      vertex 60.049 -30 4.4741
    endloop
  endfacet
  facet normal 0 -1 0
    outer loop
      vertex 61 -30 0
      vertex 64.6722 -30 3.11868
      vertex 60.7596 -30 2.28703
    endloop
  endfacet
  facet normal 0 -1 0
    outer loop
      vertex 61 -30 0
      vertex 65 -30 0
      vertex 64.6722 -30 3.11868
    endloop
  endfacet
  facet normal 0 -1 0
    outer loop
      vertex 60.7596 -30 -2.28703
      vertex 65 -30 0
      vertex 61 -30 0
    endloop
  endfacet
  facet normal 0 -1 0
    outer loop
      vertex 60.7596 -30 -2.28703
      vertex 64.6722 -30 -3.11868
      vertex 65 -30 0
    endloop
  endfacet
  facet normal 0 -1 0
    outer loop
      vertex 60.049 -30 -4.4741
      vertex 64.6722 -30 -3.11868
      vertex 60.7596 -30 -2.28703
    endloop
  endfacet
  facet normal 0 -1 0
    outer loop
      vertex 60.049 -30 -4.4741
      vertex 63.7032 -30 -6.10105
      vertex 64.6722 -30 -3.11868
    endloop
  endfacet
  facet normal 0 -1 0
    outer loop
      vertex 58.8992 -30 -6.46564
      vertex 63.7032 -30 -6.10105
      vertex 60.049 -30 -4.4741
    endloop
  endfacet
  facet normal 0 -1 0
    outer loop
      vertex 62.1353 -30 -8.81678
      vertex 58.8992 -30 -6.46564
      vertex 57.3604 -30 -8.17459
    endloop
  endfacet
  facet normal 0 -1 0
    outer loop
      vertex 58.8992 -30 -6.46564
      vertex 62.1353 -30 -8.81678
      vertex 63.7032 -30 -6.10105
    endloop
  endfacet
  facet normal 0 -1 0
    outer loop
      vertex 60.037 -30 -11.1472
      vertex 57.3604 -30 -8.17459
      vertex 55.5 -30 -9.52628
    endloop
  endfacet
  facet normal 0 -1 0
    outer loop
      vertex 57.5 -30 -12.9904
      vertex 55.5 -30 -9.52628
      vertex 53.3992 -30 -10.4616
    endloop
  endfacet
  facet normal 0 -1 0
    outer loop
      vertex 54.6353 -30 -14.2658
      vertex 53.3992 -30 -10.4616
      vertex 51.1498 -30 -10.9397
    endloop
  endfacet
  facet normal 0 -1 0
    outer loop
      vertex 57.3604 -30 -8.17459
      vertex 60.037 -30 -11.1472
      vertex 62.1353 -30 -8.81678
    endloop
  endfacet
  facet normal 0 -1 -0
    outer loop
      vertex 46.6008 -30 -10.4616
      vertex 45.3647 -30 -14.2658
      vertex 48.8502 -30 -10.9397
    endloop
  endfacet
  facet normal 0 -1 0
    outer loop
      vertex 48.4321 -30 -14.9178
      vertex 48.8502 -30 -10.9397
      vertex 45.3647 -30 -14.2658
    endloop
  endfacet
  facet normal 0 -1 0
    outer loop
      vertex 55.5 -30 -9.52628
      vertex 57.5 -30 -12.9904
      vertex 60.037 -30 -11.1472
    endloop
  endfacet
  facet normal 0 -1 -0
    outer loop
      vertex 48.8502 -30 -10.9397
      vertex 48.4321 -30 -14.9178
      vertex 51.1498 -30 -10.9397
    endloop
  endfacet
  facet normal 0 -1 0
    outer loop
      vertex 53.3992 -30 -10.4616
      vertex 54.6353 -30 -14.2658
      vertex 57.5 -30 -12.9904
    endloop
  endfacet
  facet normal 0 -1 0
    outer loop
      vertex 51.5679 -30 -14.9178
      vertex 51.1498 -30 -10.9397
      vertex 48.4321 -30 -14.9178
    endloop
  endfacet
  facet normal 0 -1 0
    outer loop
      vertex 51.1498 -30 -10.9397
      vertex 51.5679 -30 -14.9178
      vertex 54.6353 -30 -14.2658
    endloop
  endfacet
  facet normal -0.951057 0 0.309017
    outer loop
      vertex 35.3278 -30 3.11868
      vertex 36.2968 -7 6.10105
      vertex 35.3278 -7 3.11868
    endloop
  endfacet
  facet normal -0.951057 0 0.309017
    outer loop
      vertex 36.2968 -7 6.10105
      vertex 35.3278 -30 3.11868
      vertex 36.2968 -30 6.10105
    endloop
  endfacet
  facet normal -0.951057 0 0.309017
    outer loop
      vertex 35.3278 -1 3.11868
      vertex 36.2968 0 6.10105
      vertex 35.3278 0 3.11868
    endloop
  endfacet
  facet normal -0.951057 0 0.309017
    outer loop
      vertex 36.2968 0 6.10105
      vertex 35.3278 -1 3.11868
      vertex 36.2968 -1 6.10105
    endloop
  endfacet
  facet normal 0 -1 -0
    outer loop
      vertex 39.963 -30 11.1472
      vertex 36.2968 -30 6.10105
      vertex 42.5 -30 12.9904
    endloop
  endfacet
  facet normal 0 -1 -0
    outer loop
      vertex 42.5 -30 12.9904
      vertex 36.2968 -30 6.10105
      vertex 45.3647 -30 14.2658
    endloop
  endfacet
  facet normal -0.951056 0 -0.309017
    outer loop
      vertex 60.7596 -30 2.28703
      vertex 60.049 0 4.4741
      vertex 60.7596 0 2.28703
    endloop
  endfacet
  facet normal -0.951056 -0 -0.309017
    outer loop
      vertex 60.049 0 4.4741
      vertex 60.7596 -30 2.28703
      vertex 60.049 -30 4.4741
    endloop
  endfacet
  facet normal -0.866025 0 -0.500001
    outer loop
      vertex 59.1097 -30 6.10105
      vertex 60.049 0 4.4741
      vertex 60.049 -30 4.4741
    endloop
  endfacet
  facet normal -0.866025 5.36642e-009 -0.500001
    outer loop
      vertex 60.049 0 4.4741
      vertex 59.1097 -30 6.10105
      vertex 58.8992 0 6.46564
    endloop
  endfacet
  facet normal -0.866025 -0 -0.5
    outer loop
      vertex 58.8992 0 6.46564
      vertex 59.1097 -30 6.10105
      vertex 58.8992 -30 6.46564
    endloop
  endfacet
  facet normal -0.994522 0 -0.104528
    outer loop
      vertex 61 -30 0
      vertex 60.7596 0 2.28703
      vertex 61 0 0
    endloop
  endfacet
  facet normal -0.994522 -0 -0.104528
    outer loop
      vertex 60.7596 0 2.28703
      vertex 61 -30 0
      vertex 60.7596 -30 2.28703
    endloop
  endfacet
  facet normal 0.951056 -0 0.309017
    outer loop
      vertex 39.2404 -30 -2.28703
      vertex 39.951 0 -4.4741
      vertex 39.2404 0 -2.28703
    endloop
  endfacet
  facet normal 0.951056 0 0.309017
    outer loop
      vertex 39.951 0 -4.4741
      vertex 39.2404 -30 -2.28703
      vertex 39.951 -30 -4.4741
    endloop
  endfacet
  facet normal -0.207912 0 0.978148
    outer loop
      vertex 51.1498 0 -10.9397
      vertex 53.3992 -30 -10.4616
      vertex 53.3992 0 -10.4616
    endloop
  endfacet
  facet normal -0.207912 0 0.978148
    outer loop
      vertex 53.3992 -30 -10.4616
      vertex 51.1498 0 -10.9397
      vertex 51.1498 -30 -10.9397
    endloop
  endfacet
  facet normal -0.743145 0 0.66913
    outer loop
      vertex 57.3604 -30 -8.17459
      vertex 58.8992 0 -6.46564
      vertex 57.3604 0 -8.17459
    endloop
  endfacet
  facet normal -0.743145 0 0.66913
    outer loop
      vertex 58.8992 0 -6.46564
      vertex 57.3604 -30 -8.17459
      vertex 58.8992 -30 -6.46564
    endloop
  endfacet
  facet normal -0.207912 0 -0.978148
    outer loop
      vertex 51.1498 -30 10.9397
      vertex 53.3992 0 10.4616
      vertex 53.3992 -30 10.4616
    endloop
  endfacet
  facet normal -0.207912 0 -0.978148
    outer loop
      vertex 53.3992 0 10.4616
      vertex 51.1498 -30 10.9397
      vertex 51.1498 0 10.9397
    endloop
  endfacet
  facet normal -0.743145 0 -0.66913
    outer loop
      vertex 58.8992 -30 6.46564
      vertex 57.3604 0 8.17459
      vertex 58.8992 0 6.46564
    endloop
  endfacet
  facet normal -0.743145 -0 -0.66913
    outer loop
      vertex 57.3604 0 8.17459
      vertex 58.8992 -30 6.46564
      vertex 57.3604 -30 8.17459
    endloop
  endfacet
  facet normal 0.587785 0 0.809017
    outer loop
      vertex 42.6396 0 -8.17459
      vertex 44.5 -30 -9.52628
      vertex 44.5 0 -9.52628
    endloop
  endfacet
  facet normal 0.587785 0 0.809017
    outer loop
      vertex 44.5 -30 -9.52628
      vertex 42.6396 0 -8.17459
      vertex 42.6396 -30 -8.17459
    endloop
  endfacet
  facet normal 0.994522 0 -0.104528
    outer loop
      vertex 39.2404 -30 2.28703
      vertex 39 0 0
      vertex 39.2404 0 2.28703
    endloop
  endfacet
  facet normal 0.994522 0 -0.104528
    outer loop
      vertex 39 0 0
      vertex 39.2404 -30 2.28703
      vertex 39 -30 0
    endloop
  endfacet
  facet normal 0.994522 -0 0.104528
    outer loop
      vertex 39 -30 0
      vertex 39.2404 0 -2.28703
      vertex 39 0 0
    endloop
  endfacet
  facet normal 0.994522 0 0.104528
    outer loop
      vertex 39.2404 0 -2.28703
      vertex 39 -30 0
      vertex 39.2404 -30 -2.28703
    endloop
  endfacet
  facet normal 0.951056 0 -0.309017
    outer loop
      vertex 39.951 -30 4.4741
      vertex 39.2404 0 2.28703
      vertex 39.951 0 4.4741
    endloop
  endfacet
  facet normal 0.951056 0 -0.309017
    outer loop
      vertex 39.2404 0 2.28703
      vertex 39.951 -30 4.4741
      vertex 39.2404 -30 2.28703
    endloop
  endfacet
  facet normal 0.866025 -0 0.500001
    outer loop
      vertex 39.951 -30 -4.4741
      vertex 41.1008 0 -6.46564
      vertex 39.951 0 -4.4741
    endloop
  endfacet
  facet normal 0.866025 0 0.500001
    outer loop
      vertex 41.1008 0 -6.46564
      vertex 39.951 -30 -4.4741
      vertex 41.1008 -30 -6.46564
    endloop
  endfacet
  facet normal 0.743145 -0 0.66913
    outer loop
      vertex 41.1008 -30 -6.46564
      vertex 42.6396 0 -8.17459
      vertex 41.1008 0 -6.46564
    endloop
  endfacet
  facet normal 0.743145 0 0.66913
    outer loop
      vertex 42.6396 0 -8.17459
      vertex 41.1008 -30 -6.46564
      vertex 42.6396 -30 -8.17459
    endloop
  endfacet
  facet normal -0.406737 0 0.913545
    outer loop
      vertex 53.3992 0 -10.4616
      vertex 55.5 -30 -9.52628
      vertex 55.5 0 -9.52628
    endloop
  endfacet
  facet normal -0.406737 0 0.913545
    outer loop
      vertex 55.5 -30 -9.52628
      vertex 53.3992 0 -10.4616
      vertex 53.3992 -30 -10.4616
    endloop
  endfacet
  facet normal -0.587785 0 0.809017
    outer loop
      vertex 55.5 0 -9.52628
      vertex 57.3604 -30 -8.17459
      vertex 57.3604 0 -8.17459
    endloop
  endfacet
  facet normal -0.587785 0 0.809017
    outer loop
      vertex 57.3604 -30 -8.17459
      vertex 55.5 0 -9.52628
      vertex 55.5 -30 -9.52628
    endloop
  endfacet
  facet normal -0.866025 0 0.500001
    outer loop
      vertex 58.8992 -30 -6.46564
      vertex 60.049 0 -4.4741
      vertex 58.8992 0 -6.46564
    endloop
  endfacet
  facet normal -0.866025 0 0.500001
    outer loop
      vertex 60.049 0 -4.4741
      vertex 58.8992 -30 -6.46564
      vertex 60.049 -30 -4.4741
    endloop
  endfacet
  facet normal -0.951056 0 0.309017
    outer loop
      vertex 60.049 -30 -4.4741
      vertex 60.7596 0 -2.28703
      vertex 60.049 0 -4.4741
    endloop
  endfacet
  facet normal -0.951056 0 0.309017
    outer loop
      vertex 60.7596 0 -2.28703
      vertex 60.049 -30 -4.4741
      vertex 60.7596 -30 -2.28703
    endloop
  endfacet
  facet normal -0.994522 0 0.104528
    outer loop
      vertex 60.7596 -30 -2.28703
      vertex 61 0 0
      vertex 60.7596 0 -2.28703
    endloop
  endfacet
  facet normal -0.994522 0 0.104528
    outer loop
      vertex 61 0 0
      vertex 60.7596 -30 -2.28703
      vertex 61 -30 0
    endloop
  endfacet
  facet normal 0.587785 0 -0.809017
    outer loop
      vertex 42.6396 -30 8.17459
      vertex 44.5 0 9.52628
      vertex 44.5 -30 9.52628
    endloop
  endfacet
  facet normal 0.587785 0 -0.809017
    outer loop
      vertex 44.5 0 9.52628
      vertex 42.6396 -30 8.17459
      vertex 42.6396 0 8.17459
    endloop
  endfacet
  facet normal 0 0 -1
    outer loop
      vertex 48.8502 -30 10.9397
      vertex 51.1498 0 10.9397
      vertex 51.1498 -30 10.9397
    endloop
  endfacet
  facet normal -0 0 -1
    outer loop
      vertex 51.1498 0 10.9397
      vertex 48.8502 -30 10.9397
      vertex 48.8502 0 10.9397
    endloop
  endfacet
  facet normal 0.207912 0 -0.978148
    outer loop
      vertex 46.6008 -30 10.4616
      vertex 48.8502 0 10.9397
      vertex 48.8502 -30 10.9397
    endloop
  endfacet
  facet normal 0.207912 0 -0.978148
    outer loop
      vertex 48.8502 0 10.9397
      vertex 46.6008 -30 10.4616
      vertex 46.6008 0 10.4616
    endloop
  endfacet
  facet normal -0.587785 0 -0.809017
    outer loop
      vertex 55.5 -30 9.52628
      vertex 57.3604 0 8.17459
      vertex 57.3604 -30 8.17459
    endloop
  endfacet
  facet normal -0.587785 0 -0.809017
    outer loop
      vertex 57.3604 0 8.17459
      vertex 55.5 -30 9.52628
      vertex 55.5 0 9.52628
    endloop
  endfacet
  facet normal -0.406737 0 -0.913545
    outer loop
      vertex 53.3992 -30 10.4616
      vertex 55.5 0 9.52628
      vertex 55.5 -30 9.52628
    endloop
  endfacet
  facet normal -0.406737 0 -0.913545
    outer loop
      vertex 55.5 0 9.52628
      vertex 53.3992 -30 10.4616
      vertex 53.3992 0 10.4616
    endloop
  endfacet
  facet normal 0.207912 0 0.978148
    outer loop
      vertex 46.6008 0 -10.4616
      vertex 48.8502 -30 -10.9397
      vertex 48.8502 0 -10.9397
    endloop
  endfacet
  facet normal 0.207912 0 0.978148
    outer loop
      vertex 48.8502 -30 -10.9397
      vertex 46.6008 0 -10.4616
      vertex 46.6008 -30 -10.4616
    endloop
  endfacet
  facet normal -0 0 1
    outer loop
      vertex 48.8502 0 -10.9397
      vertex 51.1498 -30 -10.9397
      vertex 51.1498 0 -10.9397
    endloop
  endfacet
  facet normal 0 0 1
    outer loop
      vertex 51.1498 -30 -10.9397
      vertex 48.8502 0 -10.9397
      vertex 48.8502 -30 -10.9397
    endloop
  endfacet
  facet normal 0.406737 0 0.913545
    outer loop
      vertex 44.5 0 -9.52628
      vertex 46.6008 -30 -10.4616
      vertex 46.6008 0 -10.4616
    endloop
  endfacet
  facet normal 0.406737 0 0.913545
    outer loop
      vertex 46.6008 -30 -10.4616
      vertex 44.5 0 -9.52628
      vertex 44.5 -30 -9.52628
    endloop
  endfacet
  facet normal 0.406737 0 -0.913545
    outer loop
      vertex 44.5 -30 9.52628
      vertex 46.6008 0 10.4616
      vertex 46.6008 -30 10.4616
    endloop
  endfacet
  facet normal 0.406737 0 -0.913545
    outer loop
      vertex 46.6008 0 10.4616
      vertex 44.5 -30 9.52628
      vertex 44.5 0 9.52628
    endloop
  endfacet
  facet normal 0.743145 0 -0.66913
    outer loop
      vertex 42.6396 -30 8.17459
      vertex 41.1008 0 6.46564
      vertex 42.6396 0 8.17459
    endloop
  endfacet
  facet normal 0.743145 0 -0.66913
    outer loop
      vertex 41.1008 0 6.46564
      vertex 42.6396 -30 8.17459
      vertex 41.1008 -30 6.46564
    endloop
  endfacet
  facet normal 0.866021 0 -0.500007
    outer loop
      vertex 40.8903 -30 6.10105
      vertex 41.1008 0 6.46564
      vertex 41.1008 -30 6.46564
    endloop
  endfacet
  facet normal 0.866025 -1.04754e-007 -0.500001
    outer loop
      vertex 41.1008 0 6.46564
      vertex 40.8903 -30 6.10105
      vertex 39.951 0 4.4741
    endloop
  endfacet
  facet normal 0.866026 0 -0.499999
    outer loop
      vertex 39.951 0 4.4741
      vertex 40.8903 -30 6.10105
      vertex 39.951 -30 4.4741
    endloop
  endfacet
endsolid OpenSCAD_Model
